<?xml version="1.0" encoding="utf-8" standalone="no"?>
<!DOCTYPE svg PUBLIC "-//W3C//DTD SVG 1.1//EN"
  "http://www.w3.org/Graphics/SVG/1.1/DTD/svg11.dtd">
<svg xmlns:xlink="http://www.w3.org/1999/xlink" width="384.301562pt" height="275.668125pt" viewBox="0 0 384.301562 275.668125" xmlns="http://www.w3.org/2000/svg" version="1.1">
 <metadata>
  <rdf:RDF xmlns:dc="http://purl.org/dc/elements/1.1/" xmlns:cc="http://creativecommons.org/ns#" xmlns:rdf="http://www.w3.org/1999/02/22-rdf-syntax-ns#">
   <cc:Work>
    <dc:type rdf:resource="http://purl.org/dc/dcmitype/StillImage"/>
    <dc:date>2022-06-27T12:57:03.213129</dc:date>
    <dc:format>image/svg+xml</dc:format>
    <dc:creator>
     <cc:Agent>
      <dc:title>Matplotlib v3.5.1, https://matplotlib.org/</dc:title>
     </cc:Agent>
    </dc:creator>
   </cc:Work>
  </rdf:RDF>
 </metadata>
 <defs>
  <style type="text/css">*{stroke-linejoin: round; stroke-linecap: butt}</style>
 </defs>
 <g id="figure_1">
  <g id="patch_1">
   <path d="M 0 275.668125 
L 384.301562 275.668125 
L 384.301562 0 
L 0 0 
L 0 275.668125 
z
" style="fill: none"/>
  </g>
  <g id="axes_1">
   <g id="patch_2">
    <path d="M 42.301563 240.2025 
L 377.101562 240.2025 
L 377.101562 22.7625 
L 42.301563 22.7625 
z
" style="fill: #ffffff"/>
   </g>
   <g id="matplotlib.axis_1">
    <g id="xtick_1">
     <g id="line2d_1">
      <defs>
       <path id="m33d1b373fb" d="M 0 0 
L 0 3.5 
" style="stroke: #000000; stroke-width: 0.8"/>
      </defs>
      <g>
       <use xlink:href="#m33d1b373fb" x="57.519744" y="240.2025" style="stroke: #000000; stroke-width: 0.8"/>
      </g>
     </g>
     <g id="text_1">
      <!-- 0 -->
      <g transform="translate(55.019744 254.038437)scale(0.1 -0.1)">
       <defs>
        <path id="SimHei-30" d="M 2975 2250 
Q 2975 1350 2650 700 
Q 2325 50 1600 50 
Q 875 50 537 700 
Q 200 1350 200 2250 
Q 200 3150 537 3787 
Q 875 4425 1600 4425 
Q 2325 4425 2650 3787 
Q 2975 3150 2975 2250 
z
M 2375 2250 
Q 2375 3050 2187 3500 
Q 2000 3950 1600 3950 
Q 1200 3950 1000 3500 
Q 800 3050 800 2250 
Q 800 1450 1000 987 
Q 1200 525 1600 525 
Q 2000 525 2187 987 
Q 2375 1450 2375 2250 
z
" transform="scale(0.015625)"/>
       </defs>
       <use xlink:href="#SimHei-30"/>
      </g>
     </g>
    </g>
    <g id="xtick_2">
     <g id="line2d_2">
      <g>
       <use xlink:href="#m33d1b373fb" x="119.634772" y="240.2025" style="stroke: #000000; stroke-width: 0.8"/>
      </g>
     </g>
     <g id="text_2">
      <!-- 10 -->
      <g transform="translate(114.634772 254.038437)scale(0.1 -0.1)">
       <defs>
        <path id="SimHei-31" d="M 1950 100 
L 1375 100 
L 1375 3425 
L 625 3425 
L 625 3725 
Q 1075 3725 1325 3900 
Q 1575 4075 1650 4425 
L 1950 4425 
L 1950 100 
z
" transform="scale(0.015625)"/>
       </defs>
       <use xlink:href="#SimHei-31"/>
       <use xlink:href="#SimHei-30" x="50"/>
      </g>
     </g>
    </g>
    <g id="xtick_3">
     <g id="line2d_3">
      <g>
       <use xlink:href="#m33d1b373fb" x="181.7498" y="240.2025" style="stroke: #000000; stroke-width: 0.8"/>
      </g>
     </g>
     <g id="text_3">
      <!-- 20 -->
      <g transform="translate(176.7498 254.038437)scale(0.1 -0.1)">
       <defs>
        <path id="SimHei-32" d="M 2850 100 
L 300 100 
L 300 500 
Q 450 900 712 1237 
Q 975 1575 1475 2000 
Q 1850 2325 2012 2600 
Q 2175 2875 2175 3200 
Q 2175 3525 2037 3737 
Q 1900 3950 1600 3950 
Q 1350 3950 1162 3725 
Q 975 3500 975 2925 
L 400 2925 
Q 425 3650 737 4037 
Q 1050 4425 1625 4425 
Q 2175 4425 2475 4087 
Q 2775 3750 2775 3175 
Q 2775 2700 2500 2350 
Q 2225 2000 1825 1650 
Q 1375 1250 1200 1050 
Q 1025 850 875 575 
L 2850 575 
L 2850 100 
z
" transform="scale(0.015625)"/>
       </defs>
       <use xlink:href="#SimHei-32"/>
       <use xlink:href="#SimHei-30" x="50"/>
      </g>
     </g>
    </g>
    <g id="xtick_4">
     <g id="line2d_4">
      <g>
       <use xlink:href="#m33d1b373fb" x="243.864828" y="240.2025" style="stroke: #000000; stroke-width: 0.8"/>
      </g>
     </g>
     <g id="text_4">
      <!-- 30 -->
      <g transform="translate(238.864828 254.038437)scale(0.1 -0.1)">
       <defs>
        <path id="SimHei-33" d="M 2825 1300 
Q 2825 725 2462 387 
Q 2100 50 1550 50 
Q 1000 50 637 387 
Q 275 725 275 1425 
L 850 1425 
Q 850 950 1037 737 
Q 1225 525 1550 525 
Q 1875 525 2050 725 
Q 2225 925 2225 1350 
Q 2225 1700 2037 1900 
Q 1850 2100 1375 2100 
L 1375 2525 
Q 1775 2525 1962 2725 
Q 2150 2925 2150 3325 
Q 2150 3625 2012 3800 
Q 1875 3975 1575 3975 
Q 1275 3975 1112 3762 
Q 950 3550 925 3150 
L 375 3150 
Q 425 3725 737 4075 
Q 1050 4425 1575 4425 
Q 2125 4425 2425 4112 
Q 2725 3800 2725 3350 
Q 2725 2925 2575 2687 
Q 2425 2450 2075 2325 
Q 2425 2250 2625 1975 
Q 2825 1700 2825 1300 
z
" transform="scale(0.015625)"/>
       </defs>
       <use xlink:href="#SimHei-33"/>
       <use xlink:href="#SimHei-30" x="50"/>
      </g>
     </g>
    </g>
    <g id="xtick_5">
     <g id="line2d_5">
      <g>
       <use xlink:href="#m33d1b373fb" x="305.979856" y="240.2025" style="stroke: #000000; stroke-width: 0.8"/>
      </g>
     </g>
     <g id="text_5">
      <!-- 40 -->
      <g transform="translate(300.979856 254.038437)scale(0.1 -0.1)">
       <defs>
        <path id="SimHei-34" d="M 2975 1200 
L 2450 1200 
L 2450 100 
L 1875 100 
L 1875 1200 
L 200 1200 
L 200 1675 
L 1875 4425 
L 2450 4425 
L 2450 1675 
L 2975 1675 
L 2975 1200 
z
M 1875 1675 
L 1875 3525 
L 750 1675 
L 1875 1675 
z
" transform="scale(0.015625)"/>
       </defs>
       <use xlink:href="#SimHei-34"/>
       <use xlink:href="#SimHei-30" x="50"/>
      </g>
     </g>
    </g>
    <g id="xtick_6">
     <g id="line2d_6">
      <g>
       <use xlink:href="#m33d1b373fb" x="368.094883" y="240.2025" style="stroke: #000000; stroke-width: 0.8"/>
      </g>
     </g>
     <g id="text_6">
      <!-- 50 -->
      <g transform="translate(363.094883 254.038437)scale(0.1 -0.1)">
       <defs>
        <path id="SimHei-35" d="M 2825 1650 
Q 2825 900 2462 475 
Q 2100 50 1500 50 
Q 975 50 637 400 
Q 300 750 275 1350 
L 850 1350 
Q 850 975 1025 750 
Q 1200 525 1525 525 
Q 1850 525 2037 800 
Q 2225 1075 2225 1650 
Q 2225 2150 2062 2387 
Q 1900 2625 1625 2625 
Q 1400 2625 1237 2525 
Q 1075 2425 925 2175 
L 425 2175 
L 575 4375 
L 2725 4375 
L 2725 3900 
L 1050 3900 
L 950 2750 
Q 1100 2900 1275 2975 
Q 1450 3050 1750 3050 
Q 2225 3050 2525 2687 
Q 2825 2325 2825 1650 
z
" transform="scale(0.015625)"/>
       </defs>
       <use xlink:href="#SimHei-35"/>
       <use xlink:href="#SimHei-30" x="50"/>
      </g>
     </g>
    </g>
    <g id="text_7">
     <!-- 迭代次数 -->
     <g transform="translate(189.701563 267.179062)scale(0.1 -0.1)">
      <defs>
       <path id="SimHei-8fed" d="M 5225 275 
Q 4750 950 3925 1800 
Q 3625 1275 3312 962 
Q 3000 650 2550 275 
Q 2425 400 2050 675 
Q 2600 950 3012 1387 
Q 3425 1825 3600 2400 
Q 2350 2400 1950 2375 
L 1950 2825 
Q 2375 2800 3675 2800 
Q 3725 3175 3750 3700 
L 2725 3700 
Q 2600 3400 2500 3125 
Q 2225 3225 1950 3275 
Q 2125 3575 2275 4000 
Q 2425 4425 2550 5050 
Q 2800 4950 3175 4875 
Q 3000 4625 2875 4100 
L 3750 4100 
Q 3750 4750 3700 5125 
Q 4000 5075 4275 5100 
Q 4225 4800 4200 4100 
L 4925 4100 
Q 5150 4100 5550 4125 
L 5550 3650 
Q 5150 3700 4850 3700 
L 4225 3700 
Q 4200 3175 4150 2800 
L 5125 2800 
Q 5450 2800 5900 2825 
L 5900 2375 
Q 5450 2400 5050 2400 
L 4125 2400 
L 4100 2250 
Q 4625 1725 5700 700 
Q 5575 625 5225 275 
z
M 725 4750 
Q 975 4850 1275 4900 
Q 1525 4150 1675 3775 
Q 1400 3750 1100 3650 
Q 1025 3875 725 4750 
z
M 400 2900 
Q 825 2875 1125 2875 
L 1600 2875 
Q 1575 2425 1575 1975 
L 1575 550 
Q 2200 0 3700 0 
Q 5200 0 6050 125 
Q 5900 -225 5850 -475 
Q 4175 -475 3562 -462 
Q 2950 -450 2487 -362 
Q 2025 -275 1712 -50 
Q 1400 175 1200 -25 
Q 1000 -225 750 -575 
Q 525 -325 275 -175 
Q 825 300 1125 475 
L 1125 2475 
Q 800 2475 400 2450 
L 400 2900 
z
" transform="scale(0.015625)"/>
       <path id="SimHei-4ee3" d="M 2025 2700 
Q 2425 2750 3300 2925 
Q 3175 4525 3150 5050 
Q 3300 5025 3800 4975 
Q 3700 4650 3800 3025 
Q 5000 3250 5650 3450 
L 5775 2975 
Q 5500 2950 3850 2600 
Q 4150 1025 4712 462 
Q 5275 -100 5362 212 
Q 5450 525 5500 750 
Q 5875 475 6075 425 
Q 5900 -125 5737 -400 
Q 5575 -675 5162 -575 
Q 4750 -475 4162 300 
Q 3575 1075 3350 2500 
Q 2400 2300 2175 2200 
L 2025 2700 
z
M 4275 4525 
Q 4475 4650 4725 4825 
Q 4825 4700 5012 4437 
Q 5200 4175 5325 4000 
Q 5075 3850 4850 3700 
Q 4600 4050 4275 4525 
z
M 1650 5150 
Q 2050 4975 2300 4900 
Q 2100 4675 1700 3600 
L 1700 475 
Q 1700 -50 1725 -600 
L 1200 -600 
Q 1225 -50 1225 475 
L 1225 2725 
Q 850 2125 625 1800 
Q 425 2000 200 2200 
Q 525 2475 987 3337 
Q 1450 4200 1650 5150 
z
" transform="scale(0.015625)"/>
       <path id="SimHei-6b21" d="M 525 4300 
Q 725 4425 1000 4550 
Q 1150 4300 1350 3950 
Q 1550 3600 1750 3250 
Q 1475 3125 1250 2975 
Q 1100 3275 937 3625 
Q 775 3975 525 4300 
z
M 1475 2225 
Q 1650 2075 1950 1925 
Q 1800 1700 1512 1150 
Q 1225 600 900 -50 
Q 675 125 400 300 
Q 775 700 1037 1237 
Q 1300 1775 1475 2225 
z
M 3000 5075 
Q 3275 4975 3650 4825 
Q 3500 4725 3387 4450 
Q 3275 4175 3150 3900 
L 5800 3900 
Q 5725 3700 5600 3337 
Q 5475 2975 5325 2450 
Q 5050 2525 4775 2575 
Q 4875 2800 4950 3025 
Q 5025 3250 5100 3500 
L 2975 3500 
Q 2850 3300 2712 3000 
Q 2575 2700 2400 2400 
Q 2225 2550 1950 2650 
Q 2125 2875 2287 3175 
Q 2450 3475 2587 3800 
Q 2725 4125 2825 4450 
Q 2925 4775 3000 5075 
z
M 3500 3050 
Q 3800 3025 4100 2975 
Q 4025 2725 4012 2250 
Q 4000 1775 4212 1375 
Q 4425 975 4725 700 
Q 5025 425 5375 262 
Q 5725 100 6000 25 
Q 5850 -75 5775 -212 
Q 5700 -350 5625 -550 
Q 5075 -250 4750 12 
Q 4425 275 4237 525 
Q 4050 775 3950 1012 
Q 3850 1250 3775 1475 
Q 3650 1100 3512 812 
Q 3375 525 3162 300 
Q 2950 75 2675 -137 
Q 2400 -350 2025 -600 
Q 1850 -325 1600 -150 
Q 2225 75 2600 412 
Q 2975 750 3175 1100 
Q 3375 1450 3437 1787 
Q 3500 2125 3512 2362 
Q 3525 2600 3500 3050 
z
" transform="scale(0.015625)"/>
       <path id="SimHei-6570" d="M 700 4850 
Q 950 4925 1100 5025 
Q 1300 4700 1475 4375 
Q 1250 4275 1075 4175 
Q 925 4550 700 4850 
z
M 2875 5025 
Q 3150 4900 3400 4800 
Q 3250 4700 3150 4525 
Q 3050 4350 2925 4125 
Q 2725 4225 2525 4275 
Q 2725 4600 2875 5025 
z
M 2450 3175 
Q 2675 3275 2825 3425 
Q 3125 3000 3325 2650 
Q 3100 2550 2900 2400 
Q 2700 2875 2450 3175 
z
M 525 3950 
Q 925 3925 1800 3925 
Q 1800 4650 1775 5175 
L 2275 5175 
Q 2250 4650 2250 3925 
Q 3075 3925 3450 3950 
L 3450 3500 
Q 3075 3525 2250 3525 
Q 2250 2950 2275 2525 
L 1775 2525 
Q 1800 2900 1800 3325 
Q 1675 3075 1387 2787 
Q 1100 2500 750 2300 
Q 650 2525 425 2675 
Q 650 2750 987 3000 
Q 1325 3250 1475 3525 
Q 950 3525 525 3500 
L 525 3950 
z
M 1725 1550 
Q 1600 1300 1450 1050 
Q 1750 975 2250 850 
Q 2425 1075 2575 1550 
L 1725 1550 
z
M 1550 2450 
Q 1825 2350 2100 2275 
Q 2000 2175 1875 1950 
L 2850 1950 
L 3125 1950 
Q 2975 1300 2700 725 
Q 3125 600 3375 525 
Q 3175 250 3075 25 
Q 2850 175 2400 350 
Q 1800 -250 600 -650 
Q 500 -400 300 -250 
Q 1375 0 2000 525 
Q 1300 700 850 825 
Q 1000 1025 1250 1550 
Q 850 1550 300 1525 
L 300 1975 
Q 775 1950 1400 1950 
Q 1475 2150 1550 2450 
z
M 4075 5150 
Q 4375 5025 4700 4975 
Q 4575 4825 4512 4625 
Q 4450 4425 4350 4050 
L 5475 4050 
Q 5700 4050 6050 4075 
L 6050 3625 
Q 5775 3650 5600 3650 
Q 5575 3125 5475 2262 
Q 5375 1400 5000 750 
Q 5250 400 5575 175 
Q 5900 -50 6150 -150 
Q 5800 -375 5700 -600 
Q 5275 -300 5075 -87 
Q 4875 125 4700 375 
Q 4400 75 4137 -125 
Q 3875 -325 3300 -650 
Q 3175 -425 2900 -250 
Q 3375 -75 3775 200 
Q 4175 475 4450 775 
Q 4175 1325 4025 1862 
Q 3875 2400 3850 2625 
Q 3800 2450 3725 2225 
Q 3500 2325 3225 2425 
Q 3525 2975 3775 3750 
Q 4025 4525 4075 5150 
z
M 4250 3650 
Q 4150 3400 4100 3237 
Q 4050 3075 4287 2350 
Q 4525 1625 4750 1225 
Q 4975 1825 5062 2475 
Q 5150 3125 5150 3650 
L 4250 3650 
z
" transform="scale(0.015625)"/>
      </defs>
      <use xlink:href="#SimHei-8fed"/>
      <use xlink:href="#SimHei-4ee3" x="100"/>
      <use xlink:href="#SimHei-6b21" x="200"/>
      <use xlink:href="#SimHei-6570" x="300"/>
     </g>
    </g>
   </g>
   <g id="matplotlib.axis_2">
    <g id="ytick_1">
     <g id="line2d_7">
      <defs>
       <path id="md56a6fa3b2" d="M 0 0 
L -3.5 0 
" style="stroke: #000000; stroke-width: 0.8"/>
      </defs>
      <g>
       <use xlink:href="#md56a6fa3b2" x="42.301563" y="222.146698" style="stroke: #000000; stroke-width: 0.8"/>
      </g>
     </g>
     <g id="text_8">
      <!-- 50 -->
      <g transform="translate(25.301563 225.564666)scale(0.1 -0.1)">
       <use xlink:href="#SimHei-35"/>
       <use xlink:href="#SimHei-30" x="50"/>
      </g>
     </g>
    </g>
    <g id="ytick_2">
     <g id="line2d_8">
      <g>
       <use xlink:href="#md56a6fa3b2" x="42.301563" y="197.136689" style="stroke: #000000; stroke-width: 0.8"/>
      </g>
     </g>
     <g id="text_9">
      <!-- 100 -->
      <g transform="translate(20.301563 200.554657)scale(0.1 -0.1)">
       <use xlink:href="#SimHei-31"/>
       <use xlink:href="#SimHei-30" x="50"/>
       <use xlink:href="#SimHei-30" x="100"/>
      </g>
     </g>
    </g>
    <g id="ytick_3">
     <g id="line2d_9">
      <g>
       <use xlink:href="#md56a6fa3b2" x="42.301563" y="172.12668" style="stroke: #000000; stroke-width: 0.8"/>
      </g>
     </g>
     <g id="text_10">
      <!-- 150 -->
      <g transform="translate(20.301563 175.544649)scale(0.1 -0.1)">
       <use xlink:href="#SimHei-31"/>
       <use xlink:href="#SimHei-35" x="50"/>
       <use xlink:href="#SimHei-30" x="100"/>
      </g>
     </g>
    </g>
    <g id="ytick_4">
     <g id="line2d_10">
      <g>
       <use xlink:href="#md56a6fa3b2" x="42.301563" y="147.116671" style="stroke: #000000; stroke-width: 0.8"/>
      </g>
     </g>
     <g id="text_11">
      <!-- 200 -->
      <g transform="translate(20.301563 150.53464)scale(0.1 -0.1)">
       <use xlink:href="#SimHei-32"/>
       <use xlink:href="#SimHei-30" x="50"/>
       <use xlink:href="#SimHei-30" x="100"/>
      </g>
     </g>
    </g>
    <g id="ytick_5">
     <g id="line2d_11">
      <g>
       <use xlink:href="#md56a6fa3b2" x="42.301563" y="122.106662" style="stroke: #000000; stroke-width: 0.8"/>
      </g>
     </g>
     <g id="text_12">
      <!-- 250 -->
      <g transform="translate(20.301563 125.524631)scale(0.1 -0.1)">
       <use xlink:href="#SimHei-32"/>
       <use xlink:href="#SimHei-35" x="50"/>
       <use xlink:href="#SimHei-30" x="100"/>
      </g>
     </g>
    </g>
    <g id="ytick_6">
     <g id="line2d_12">
      <g>
       <use xlink:href="#md56a6fa3b2" x="42.301563" y="97.096653" style="stroke: #000000; stroke-width: 0.8"/>
      </g>
     </g>
     <g id="text_13">
      <!-- 300 -->
      <g transform="translate(20.301563 100.514622)scale(0.1 -0.1)">
       <use xlink:href="#SimHei-33"/>
       <use xlink:href="#SimHei-30" x="50"/>
       <use xlink:href="#SimHei-30" x="100"/>
      </g>
     </g>
    </g>
    <g id="ytick_7">
     <g id="line2d_13">
      <g>
       <use xlink:href="#md56a6fa3b2" x="42.301563" y="72.086645" style="stroke: #000000; stroke-width: 0.8"/>
      </g>
     </g>
     <g id="text_14">
      <!-- 350 -->
      <g transform="translate(20.301563 75.504613)scale(0.1 -0.1)">
       <use xlink:href="#SimHei-33"/>
       <use xlink:href="#SimHei-35" x="50"/>
       <use xlink:href="#SimHei-30" x="100"/>
      </g>
     </g>
    </g>
    <g id="ytick_8">
     <g id="line2d_14">
      <g>
       <use xlink:href="#md56a6fa3b2" x="42.301563" y="47.076636" style="stroke: #000000; stroke-width: 0.8"/>
      </g>
     </g>
     <g id="text_15">
      <!-- 400 -->
      <g transform="translate(20.301563 50.494605)scale(0.1 -0.1)">
       <use xlink:href="#SimHei-34"/>
       <use xlink:href="#SimHei-30" x="50"/>
       <use xlink:href="#SimHei-30" x="100"/>
      </g>
     </g>
    </g>
    <g id="text_16">
     <!-- 平均最小值 -->
     <g transform="translate(15.0125 156.4825)rotate(-90)scale(0.1 -0.1)">
      <defs>
       <path id="SimHei-5e73" d="M 925 5000 
Q 1425 4975 1800 4975 
L 4525 4975 
Q 4925 4975 5450 5000 
L 5450 4525 
Q 4950 4550 4525 4550 
L 3500 4550 
L 3500 2000 
L 5050 2000 
Q 5575 2000 6025 2025 
L 6025 1550 
Q 5575 1575 5050 1575 
L 3500 1575 
L 3500 375 
Q 3500 -75 3525 -650 
L 2975 -650 
Q 3000 -75 3000 375 
L 3000 1575 
L 1175 1575 
Q 825 1575 425 1550 
L 425 2025 
Q 825 2000 1200 2000 
L 3000 2000 
L 3000 4550 
L 1825 4550 
Q 1425 4550 925 4525 
L 925 5000 
z
M 2275 2750 
Q 2025 2675 1800 2525 
Q 1625 3125 1250 3725 
Q 1475 3800 1675 3950 
Q 2050 3300 2275 2750 
z
M 4550 2425 
Q 4325 2575 4075 2650 
Q 4525 3300 4750 4000 
Q 5000 3850 5300 3750 
Q 4925 3175 4550 2425 
z
" transform="scale(0.015625)"/>
       <path id="SimHei-5747" d="M 5825 4000 
L 5650 325 
Q 5650 -250 5237 -362 
Q 4825 -475 4325 -500 
Q 4275 -200 4150 75 
Q 4825 25 5000 112 
Q 5175 200 5175 525 
L 5325 3575 
L 3575 3575 
Q 3425 3275 3262 2975 
Q 3100 2675 2875 2350 
Q 2650 2500 2400 2600 
Q 2650 2875 2837 3187 
Q 3025 3500 3150 3825 
Q 3275 4150 3362 4462 
Q 3450 4775 3500 5025 
Q 3800 4925 4150 4850 
Q 4050 4700 3950 4500 
Q 3850 4300 3750 4000 
L 5825 4000 
z
M 3475 2725 
Q 3650 2850 3850 2975 
Q 4100 2675 4400 2125 
Q 4150 2000 3975 1875 
Q 3825 2225 3475 2725 
z
M 4850 1825 
Q 4875 1600 4950 1375 
Q 4650 1250 4087 1037 
Q 3525 825 2975 550 
Q 2900 850 2775 1100 
Q 3475 1275 3762 1375 
Q 4050 1475 4850 1825 
z
M 450 3550 
Q 825 3525 1075 3525 
L 1225 3525 
L 1225 4275 
Q 1225 4650 1200 4950 
L 1725 4950 
Q 1700 4600 1700 4275 
L 1700 3525 
L 1850 3525 
Q 2150 3525 2475 3550 
L 2475 3075 
Q 2150 3100 1850 3100 
L 1700 3100 
L 1700 1100 
L 2450 1350 
Q 2425 1125 2475 900 
Q 1200 475 937 375 
Q 675 275 450 175 
Q 350 475 225 750 
Q 550 800 775 850 
Q 1000 900 1225 975 
L 1225 3100 
L 1100 3100 
Q 825 3100 450 3075 
L 450 3550 
z
" transform="scale(0.015625)"/>
       <path id="SimHei-6700" d="M 1550 2500 
L 1550 2050 
L 2625 2050 
L 2625 2500 
L 1550 2500 
z
M 1550 1700 
L 1550 1275 
L 2625 1275 
L 2625 1700 
L 1550 1700 
z
M 1550 925 
L 1550 425 
L 2625 575 
L 2625 925 
L 1550 925 
z
M 650 -225 
Q 550 50 475 300 
Q 675 300 1100 350 
L 1100 2500 
Q 800 2500 425 2475 
L 425 2875 
Q 800 2850 1125 2850 
L 5050 2850 
Q 5500 2850 5900 2875 
L 5900 2475 
Q 5500 2500 5050 2500 
L 3075 2500 
L 3075 675 
Q 3225 700 3400 750 
Q 3400 550 3400 325 
Q 3225 325 3075 275 
Q 3075 -125 3100 -500 
L 2625 -500 
Q 2625 -125 2625 225 
Q 2350 175 1800 62 
Q 1250 -50 650 -225 
z
M 3600 -600 
Q 3475 -450 3250 -225 
Q 3550 -125 3762 12 
Q 3975 150 4175 375 
Q 4025 500 3850 762 
Q 3675 1025 3500 1725 
Q 3650 1725 3900 1750 
Q 3975 1100 4425 675 
Q 4575 875 4687 1150 
Q 4800 1425 4875 1700 
L 4125 1700 
Q 3775 1700 3300 1675 
L 3300 2075 
Q 3775 2050 4125 2050 
L 5400 2050 
Q 5250 1450 5100 1087 
Q 4950 725 4750 425 
Q 4950 300 5200 200 
Q 5450 100 5925 25 
Q 5800 -150 5700 -450 
Q 5275 -300 5000 -162 
Q 4725 -25 4500 125 
Q 4325 -50 4150 -200 
Q 3975 -350 3600 -600 
z
M 1775 4675 
L 1775 4325 
L 4625 4325 
L 4625 4675 
L 1775 4675 
z
M 1775 3975 
L 1775 3650 
L 4625 3650 
L 4625 3975 
L 1775 3975 
z
M 1275 5025 
L 5125 5025 
Q 5100 4675 5100 4400 
L 5100 3950 
Q 5100 3675 5125 3300 
L 1275 3300 
Q 1300 3675 1300 3950 
L 1300 4400 
Q 1300 4675 1275 5025 
z
" transform="scale(0.015625)"/>
       <path id="SimHei-5c0f" d="M 1375 3500 
Q 1675 3375 2000 3325 
Q 1725 2750 1437 2025 
Q 1150 1300 925 825 
Q 675 1000 400 1075 
Q 850 1800 1087 2475 
Q 1325 3150 1375 3500 
z
M 4275 3250 
Q 4525 3350 4750 3525 
Q 5075 3000 5425 2362 
Q 5775 1725 6025 1150 
Q 5725 1075 5450 900 
Q 5200 1575 4900 2162 
Q 4600 2750 4275 3250 
z
M 2900 4975 
L 3500 4975 
Q 3450 4650 3450 4075 
L 3450 175 
Q 3450 -275 3200 -400 
Q 2950 -525 2400 -575 
Q 2325 -225 2175 25 
Q 2675 0 2800 25 
Q 2925 50 2925 325 
L 2925 4075 
Q 2925 4500 2900 4975 
z
" transform="scale(0.015625)"/>
       <path id="SimHei-503c" d="M 3050 600 
L 3050 125 
L 4900 125 
L 4900 600 
L 3050 600 
z
M 2225 4500 
Q 2525 4475 3175 4475 
L 3675 4475 
Q 3675 4775 3675 5125 
Q 3975 5100 4325 5075 
Q 4200 4900 4175 4475 
L 5100 4475 
Q 5550 4475 5850 4500 
L 5850 4050 
Q 5525 4075 5100 4075 
L 4150 4075 
L 4100 3525 
L 5400 3525 
Q 5375 3225 5375 2700 
L 5375 125 
Q 5850 125 6075 150 
L 6075 -300 
Q 5750 -275 5175 -275 
L 2825 -275 
Q 2275 -275 1900 -300 
L 1900 150 
Q 2125 125 2575 125 
L 2575 2700 
Q 2575 3175 2550 3525 
L 3600 3525 
L 3650 4075 
L 3175 4075 
Q 2550 4075 2225 4050 
L 2225 4500 
z
M 3050 3150 
L 3050 2650 
L 4900 2650 
L 4900 3150 
L 3050 3150 
z
M 3050 2275 
L 3050 1825 
L 4900 1825 
L 4900 2275 
L 3050 2275 
z
M 3050 1450 
L 3050 975 
L 4900 975 
L 4900 1450 
L 3050 1450 
z
M 1625 5175 
Q 1975 5000 2225 4925 
Q 2025 4700 1650 3775 
L 1650 425 
Q 1650 -100 1675 -575 
L 1150 -575 
Q 1175 -150 1175 350 
L 1175 2950 
Q 850 2450 625 2150 
Q 425 2425 250 2575 
Q 500 2825 937 3550 
Q 1375 4275 1625 5175 
z
" transform="scale(0.015625)"/>
      </defs>
      <use xlink:href="#SimHei-5e73"/>
      <use xlink:href="#SimHei-5747" x="100"/>
      <use xlink:href="#SimHei-6700" x="200"/>
      <use xlink:href="#SimHei-5c0f" x="300"/>
      <use xlink:href="#SimHei-503c" x="400"/>
     </g>
    </g>
   </g>
   <g id="line2d_15">
    <path d="M 57.519744 32.646136 
L 63.731247 118.395581 
L 69.94275 216.67156 
L 76.154253 224.777299 
L 82.365755 226.449845 
L 88.577258 227.116694 
L 94.788761 227.486147 
L 101.000264 227.816347 
L 107.211767 227.962348 
L 113.423269 228.182406 
L 119.634772 228.366792 
L 125.846275 228.47399 
L 132.057778 228.613504 
L 138.26928 228.640826 
L 144.480783 228.715331 
L 150.692286 228.762211 
L 156.903789 228.881107 
L 163.115292 228.962928 
L 169.326794 229.021718 
L 175.538297 229.162866 
L 181.7498 229.243805 
L 187.961303 229.280997 
L 194.172806 229.313973 
L 200.384308 229.374338 
L 206.595811 229.394 
L 212.807314 229.405798 
L 219.018817 229.558057 
L 225.230319 229.59841 
L 231.441822 229.781403 
L 237.653325 229.805489 
L 243.864828 229.805489 
L 250.076331 229.850188 
L 256.287833 229.883398 
L 262.499336 229.952323 
L 268.710839 229.963048 
L 274.922342 230.025037 
L 281.133845 230.135596 
L 287.345347 230.158089 
L 293.55685 230.175016 
L 299.768353 230.183306 
L 305.979856 230.202026 
L 312.191358 230.202026 
L 318.402861 230.206236 
L 324.614364 230.22085 
L 330.825867 230.250357 
L 337.03737 230.250591 
L 343.248872 230.301224 
L 349.460375 230.313715 
L 355.671878 230.313715 
L 361.883381 230.318864 
" clip-path="url(#pdacbbdfdbd)" style="fill: none; stroke: #0000ff; stroke-width: 1.5; stroke-linecap: square"/>
   </g>
   <g id="patch_3">
    <path d="M 42.301563 240.2025 
L 42.301563 22.7625 
" style="fill: none; stroke: #000000; stroke-width: 0.8; stroke-linejoin: miter; stroke-linecap: square"/>
   </g>
   <g id="patch_4">
    <path d="M 377.101562 240.2025 
L 377.101562 22.7625 
" style="fill: none; stroke: #000000; stroke-width: 0.8; stroke-linejoin: miter; stroke-linecap: square"/>
   </g>
   <g id="patch_5">
    <path d="M 42.301563 240.2025 
L 377.101562 240.2025 
" style="fill: none; stroke: #000000; stroke-width: 0.8; stroke-linejoin: miter; stroke-linecap: square"/>
   </g>
   <g id="patch_6">
    <path d="M 42.301563 22.7625 
L 377.101562 22.7625 
" style="fill: none; stroke: #000000; stroke-width: 0.8; stroke-linejoin: miter; stroke-linecap: square"/>
   </g>
   <g id="text_17">
    <!-- 100次试验下标准进化规划算法的平均最小函数值 -->
    <g transform="translate(80.701563 16.7625)scale(0.12 -0.12)">
     <defs>
      <path id="SimHei-8bd5" d="M 675 4525 
Q 875 4650 1075 4825 
Q 1400 4475 1725 3925 
Q 1500 3775 1275 3600 
Q 1175 3900 675 4525 
z
M 325 3075 
Q 650 3050 850 3050 
L 1525 3050 
Q 1500 2600 1500 2100 
L 1500 675 
Q 1775 1025 1975 1275 
Q 2050 1000 2175 750 
Q 1875 450 1650 187 
Q 1425 -75 1300 -325 
Q 1125 -75 875 50 
Q 1050 225 1050 550 
L 1050 2650 
Q 650 2650 325 2625 
L 325 3075 
z
M 1975 3725 
Q 2375 3700 2800 3700 
L 3975 3700 
Q 3950 4150 3937 4412 
Q 3925 4675 3875 5075 
Q 4225 5000 4475 4975 
Q 4450 4700 4450 4450 
Q 4450 4200 4450 3700 
L 5175 3700 
Q 5525 3700 5900 3725 
L 5900 3275 
Q 5550 3300 5150 3300 
L 4475 3300 
Q 4525 2675 4612 2162 
Q 4700 1650 4862 1112 
Q 5025 575 5237 262 
Q 5450 -50 5525 237 
Q 5600 525 5625 825 
Q 5850 575 6125 475 
Q 6000 -225 5775 -412 
Q 5550 -600 5275 -462 
Q 5000 -325 4762 100 
Q 4525 525 4375 1062 
Q 4225 1600 4137 2187 
Q 4050 2775 4000 3300 
L 2825 3300 
Q 2400 3300 1975 3275 
L 1975 3725 
z
M 2250 2575 
Q 2625 2550 3037 2550 
Q 3450 2550 3800 2575 
L 3800 2100 
Q 3525 2125 3275 2125 
L 3275 600 
Q 3700 700 4025 825 
Q 4025 575 4075 375 
Q 3700 300 3262 162 
Q 2825 25 2375 -150 
Q 2300 150 2125 375 
Q 2450 400 2825 500 
L 2825 2125 
Q 2550 2125 2250 2100 
L 2250 2575 
z
M 4850 4650 
Q 5025 4750 5250 4875 
Q 5375 4700 5700 4225 
Q 5450 4125 5300 4000 
Q 5150 4300 4850 4650 
z
" transform="scale(0.015625)"/>
      <path id="SimHei-9a8c" d="M 400 4675 
Q 775 4650 1150 4650 
L 2325 4650 
Q 2275 4425 2250 4000 
L 2075 2100 
L 2525 2100 
Q 2500 1900 2475 1450 
L 2400 100 
Q 2400 -400 2100 -475 
Q 1800 -550 1275 -625 
Q 1200 -300 1075 -75 
Q 1600 -75 1762 -62 
Q 1925 -50 1975 175 
L 2050 1700 
L 600 1700 
Q 625 2150 637 2700 
Q 650 3250 650 3750 
L 1125 3750 
Q 1075 3475 1050 3050 
Q 1025 2625 1025 2100 
L 1650 2100 
L 1825 4250 
L 1150 4250 
Q 775 4250 400 4225 
L 400 4675 
z
M 250 925 
Q 600 950 962 1000 
Q 1325 1050 1800 1125 
Q 1775 950 1750 700 
Q 1375 650 1137 600 
Q 900 550 425 400 
Q 350 675 250 925 
z
M 3775 5125 
Q 4075 5050 4425 4975 
L 4300 4800 
Q 4700 4050 5125 3712 
Q 5550 3375 6100 3175 
Q 5875 2975 5750 2700 
Q 5425 2875 5100 3150 
L 5100 2750 
Q 4775 2775 4187 2775 
Q 3600 2775 3225 2750 
L 3225 3125 
Q 3075 2925 2800 2625 
Q 2575 2825 2350 2950 
Q 2725 3225 2937 3500 
Q 3150 3775 3312 4062 
Q 3475 4350 3587 4600 
Q 3700 4850 3775 5125 
z
M 4025 4525 
Q 3850 4125 3687 3850 
Q 3525 3575 3250 3175 
L 5075 3175 
Q 4775 3400 4525 3712 
Q 4275 4025 4025 4525 
z
M 2850 2025 
Q 3050 2100 3250 2150 
Q 3350 1800 3462 1362 
Q 3575 925 3675 575 
Q 3450 550 3250 450 
Q 3175 900 3087 1225 
Q 3000 1550 2850 2025 
z
M 3750 2200 
Q 3975 2250 4175 2275 
Q 4225 1950 4275 1637 
Q 4325 1325 4400 825 
Q 4200 775 4000 725 
Q 3925 1275 3875 1550 
Q 3825 1825 3750 2200 
z
M 5025 2275 
Q 5225 2200 5575 2125 
Q 5450 1975 5375 1725 
Q 5300 1475 5137 925 
Q 4975 375 4875 50 
L 5225 50 
Q 5400 50 5750 75 
L 5750 -375 
Q 5450 -350 5225 -350 
L 3325 -350 
Q 2875 -350 2675 -375 
L 2675 75 
Q 2975 50 3350 50 
L 4450 50 
Q 4650 600 4775 1162 
Q 4900 1725 5025 2275 
z
" transform="scale(0.015625)"/>
      <path id="SimHei-4e0b" d="M 400 4775 
Q 875 4750 1375 4750 
L 4950 4750 
Q 5400 4750 5900 4775 
L 5900 4250 
Q 5375 4275 4975 4275 
L 3250 4275 
L 3250 400 
Q 3250 50 3275 -450 
L 2700 -450 
Q 2725 0 2725 400 
L 2725 4275 
L 1375 4275 
Q 875 4275 400 4250 
L 400 4775 
z
M 4000 3300 
Q 4750 2700 5600 1725 
Q 5300 1525 5125 1300 
Q 4700 1825 3575 2900 
Q 3775 3075 4000 3300 
z
" transform="scale(0.015625)"/>
      <path id="SimHei-6807" d="M 325 3800 
Q 700 3750 1175 3775 
L 1175 4375 
Q 1175 4775 1150 5150 
L 1675 5150 
Q 1625 4800 1625 4375 
L 1625 3775 
Q 2025 3775 2525 3800 
L 2525 3300 
Q 2025 3350 1625 3350 
L 1625 2275 
Q 1850 2400 2025 2525 
Q 2300 2125 2600 1650 
Q 2325 1525 2125 1375 
Q 1925 1850 1625 2275 
L 1625 450 
Q 1625 -75 1650 -600 
L 1150 -600 
Q 1175 -50 1175 450 
L 1175 2125 
Q 950 1450 575 775 
Q 450 1025 225 1225 
Q 550 1625 775 2212 
Q 1000 2800 1100 3350 
Q 675 3350 325 3300 
L 325 3800 
z
M 2825 4750 
Q 3175 4725 3600 4725 
L 4825 4725 
Q 5200 4725 5525 4750 
L 5525 4250 
Q 5200 4300 4825 4300 
L 3600 4300 
Q 3200 4300 2825 4250 
L 2825 4750 
z
M 2550 3175 
Q 2875 3150 3375 3150 
L 5150 3150 
Q 5550 3150 5925 3175 
L 5925 2700 
Q 5550 2725 5150 2725 
L 4350 2725 
L 4350 125 
Q 4350 -325 4137 -412 
Q 3925 -500 3450 -600 
Q 3400 -300 3250 0 
Q 3650 -25 3775 12 
Q 3900 50 3900 300 
L 3900 2725 
L 3375 2725 
Q 2850 2725 2550 2675 
L 2550 3175 
z
M 3025 2050 
Q 3300 1925 3575 1850 
Q 3450 1725 3187 1062 
Q 2925 400 2700 -50 
Q 2475 75 2200 175 
Q 2500 600 2712 1112 
Q 2925 1625 3025 2050 
z
M 4625 1775 
Q 4850 1900 5050 2075 
Q 5650 1275 6075 600 
Q 5825 475 5600 275 
Q 5175 1050 4625 1775 
z
" transform="scale(0.015625)"/>
      <path id="SimHei-51c6" d="M 525 4525 
Q 750 4650 1000 4825 
Q 1125 4675 1387 4325 
Q 1650 3975 1875 3650 
Q 1575 3425 1400 3275 
Q 1200 3700 525 4525 
z
M 1425 2475 
Q 1625 2250 1850 2050 
Q 1575 1550 1275 912 
Q 975 275 800 -125 
Q 525 175 300 375 
Q 675 825 925 1300 
Q 1175 1775 1425 2475 
z
M 2200 2375 
Q 1975 2550 1700 2725 
Q 2000 3025 2362 3762 
Q 2725 4500 2850 5150 
Q 3175 5025 3500 4925 
Q 3350 4750 3100 4075 
L 4875 4075 
Q 5425 4075 5900 4100 
L 5900 3650 
Q 5400 3675 4875 3675 
L 4575 3675 
L 4575 2825 
Q 5275 2825 5725 2850 
L 5725 2400 
Q 5275 2425 4575 2425 
L 4575 1575 
Q 5300 1575 5725 1600 
L 5725 1150 
Q 5300 1175 4575 1175 
L 4575 325 
Q 5600 325 6050 350 
L 6050 -125 
Q 5600 -100 5025 -100 
L 3050 -100 
L 3050 -625 
L 2550 -625 
Q 2575 -175 2575 650 
L 2575 3025 
Q 2425 2725 2200 2375 
z
M 4075 4975 
Q 4325 5050 4575 5175 
Q 4750 4750 4850 4425 
Q 4575 4350 4325 4225 
Q 4250 4550 4075 4975 
z
M 3050 3675 
L 3050 2825 
L 4100 2825 
L 4100 3675 
L 3050 3675 
z
M 3050 2425 
L 3050 1575 
L 4100 1575 
L 4100 2425 
L 3050 2425 
z
M 3050 1175 
L 3050 325 
L 4100 325 
L 4100 1175 
L 3050 1175 
z
" transform="scale(0.015625)"/>
      <path id="SimHei-8fdb" d="M 3575 5075 
Q 3550 4750 3525 4025 
L 4375 4025 
Q 4375 4525 4350 5125 
L 4875 5125 
Q 4850 4825 4850 4025 
Q 5375 4050 5875 4050 
L 5875 3575 
Q 5375 3625 4850 3625 
L 4850 2525 
Q 5450 2550 6000 2575 
L 6000 2100 
Q 5450 2125 4850 2125 
L 4850 1100 
Q 4850 700 4875 250 
L 4350 250 
Q 4350 700 4375 1100 
L 4375 2125 
L 3425 2125 
Q 3325 1450 3137 1050 
Q 2950 650 2650 250 
Q 2400 450 2175 575 
Q 2575 925 2725 1287 
Q 2875 1650 2950 2125 
Q 2375 2125 1950 2100 
L 1950 2550 
Q 2400 2525 3000 2525 
Q 3050 3100 3050 3625 
Q 2550 3625 2075 3575 
L 2075 4050 
Q 2550 4025 3075 4025 
Q 3075 4600 3050 5125 
Q 3300 5100 3575 5075 
z
M 3525 3625 
Q 3500 3100 3450 2525 
L 4375 2525 
L 4375 3625 
L 3525 3625 
z
M 625 4775 
Q 875 4875 1100 4975 
Q 1500 4125 1625 3875 
Q 1350 3825 1150 3675 
Q 1050 3900 625 4775 
z
M 350 3025 
Q 850 3000 1100 3000 
L 1575 3000 
Q 1525 2475 1525 2125 
L 1525 500 
Q 2250 50 3075 -25 
Q 3900 -100 4687 -75 
Q 5475 -50 6075 50 
Q 5950 -250 5925 -575 
Q 4750 -575 3987 -537 
Q 3225 -500 2562 -337 
Q 1900 -175 1600 12 
Q 1300 200 1062 0 
Q 825 -200 600 -450 
Q 425 -275 200 -75 
Q 775 350 1050 525 
L 1050 2600 
Q 775 2600 350 2550 
L 350 3025 
z
" transform="scale(0.015625)"/>
      <path id="SimHei-5316" d="M 3350 5075 
L 3900 5075 
Q 3850 4750 3850 4250 
L 3850 2425 
Q 4275 2800 4600 3262 
Q 4925 3725 5150 4175 
Q 5350 4025 5750 3850 
Q 5575 3700 5375 3450 
Q 5175 3200 4950 2912 
Q 4725 2625 4450 2337 
Q 4175 2050 3850 1800 
L 3850 400 
Q 3850 50 4175 50 
L 5075 50 
Q 5300 75 5337 262 
Q 5375 450 5400 825 
Q 5650 625 6000 575 
Q 5850 -100 5687 -250 
Q 5525 -400 5225 -400 
L 3900 -400 
Q 3375 -400 3375 50 
L 3375 1500 
Q 3150 1350 2950 1225 
Q 2750 1100 2450 900 
Q 2300 1175 2150 1350 
Q 2450 1475 2787 1662 
Q 3125 1850 3375 2075 
L 3375 4325 
Q 3375 4775 3350 5075 
z
M 1825 5175 
Q 2050 5025 2450 4900 
Q 2250 4625 2150 4362 
Q 2050 4100 1900 3750 
L 1900 650 
Q 1900 -125 1925 -525 
L 1375 -525 
Q 1425 -150 1425 625 
L 1425 3000 
Q 1250 2700 1100 2500 
Q 950 2300 825 2150 
Q 650 2350 425 2525 
Q 750 2850 987 3200 
Q 1225 3550 1375 3887 
Q 1525 4225 1637 4550 
Q 1750 4875 1825 5175 
z
" transform="scale(0.015625)"/>
      <path id="SimHei-89c4" d="M 1900 2125 
Q 1900 1925 1875 1625 
Q 2425 1200 3000 725 
Q 2800 525 2625 325 
Q 2250 775 1750 1175 
Q 1600 775 1337 337 
Q 1075 -100 750 -500 
Q 525 -300 275 -200 
Q 575 50 825 387 
Q 1075 725 1262 1187 
Q 1450 1650 1475 2125 
L 1225 2125 
Q 850 2125 475 2100 
L 475 2500 
Q 850 2475 1250 2475 
L 1500 2475 
L 1500 3525 
Q 975 3525 650 3500 
L 650 3900 
Q 1000 3875 1500 3875 
Q 1500 4750 1475 5050 
Q 1725 5025 2050 4975 
Q 1950 4850 1937 4525 
Q 1925 4200 1925 3875 
Q 2475 3875 2700 3900 
L 2700 3500 
Q 2400 3525 1925 3525 
L 1925 2475 
Q 2600 2475 2825 2500 
L 2825 2100 
Q 2600 2125 1900 2125 
z
M 3000 4625 
L 5675 4625 
Q 5650 4250 5650 3087 
Q 5650 1925 5675 1450 
L 5200 1450 
L 5200 4275 
L 3450 4275 
L 3450 1425 
L 3000 1425 
Q 3025 1975 3025 3087 
Q 3025 4200 3000 4625 
z
M 4100 3625 
Q 4450 3550 4675 3525 
Q 4600 3250 4550 2637 
Q 4500 2025 4425 1575 
L 4850 1575 
Q 4825 1325 4825 925 
L 4825 250 
Q 4825 -25 4975 -75 
Q 5125 -125 5300 -112 
Q 5475 -100 5537 12 
Q 5600 125 5675 625 
Q 5875 450 6175 350 
Q 5975 -300 5837 -425 
Q 5700 -550 5375 -550 
L 4900 -550 
Q 4375 -550 4375 0 
L 4375 1450 
Q 4275 1100 4112 812 
Q 3950 525 3562 162 
Q 3175 -200 2375 -650 
Q 2200 -375 1950 -175 
Q 2700 100 3162 487 
Q 3625 875 3812 1287 
Q 4000 1700 4050 2337 
Q 4100 2975 4100 3625 
z
" transform="scale(0.015625)"/>
      <path id="SimHei-5212" d="M 2275 4625 
Q 2475 4750 2700 4900 
Q 2925 4625 3175 4275 
Q 2975 4150 2750 3975 
Q 2525 4350 2275 4625 
z
M 1125 5025 
Q 1350 4975 1675 4975 
Q 1650 4650 1675 4237 
Q 1700 3825 1750 3350 
Q 2450 3425 3525 3625 
L 3575 3175 
Q 2225 3025 1800 2950 
Q 1850 2525 1912 2237 
Q 1975 1950 2100 1600 
Q 2300 1800 2487 2075 
Q 2675 2350 2925 2825 
Q 3100 2650 3450 2450 
Q 3225 2250 2925 1875 
Q 2625 1500 2300 1100 
Q 2600 550 2850 287 
Q 3100 25 3175 187 
Q 3250 350 3300 650 
Q 3550 425 3800 350 
Q 3500 -400 3312 -450 
Q 3125 -500 2900 -375 
Q 2675 -250 2550 -100 
Q 2425 50 2262 275 
Q 2100 500 1950 775 
Q 1650 500 1350 275 
Q 1050 50 700 -200 
Q 525 50 350 225 
Q 750 425 1075 637 
Q 1400 850 1750 1200 
Q 1625 1550 1537 1887 
Q 1450 2225 1350 2850 
Q 950 2800 450 2700 
L 375 3175 
Q 800 3200 1300 3275 
Q 1250 3825 1212 4187 
Q 1175 4550 1125 5025 
z
M 3900 4125 
L 4425 4125 
Q 4400 3725 4400 3425 
L 4400 1625 
Q 4400 1275 4425 775 
L 3925 775 
Q 3950 1150 3950 1625 
L 3950 3475 
Q 3950 3700 3900 4125 
z
M 5125 4925 
L 5650 4925 
Q 5600 4600 5600 4200 
L 5600 150 
Q 5600 -300 5337 -400 
Q 5075 -500 4550 -550 
Q 4500 -275 4375 0 
Q 4925 -25 5037 37 
Q 5150 100 5150 375 
L 5150 4200 
Q 5150 4575 5125 4925 
z
" transform="scale(0.015625)"/>
      <path id="SimHei-7b97" d="M 1350 5250 
Q 1575 5125 1875 5050 
Q 1675 4850 1550 4675 
L 2450 4675 
Q 2750 4675 3150 4700 
L 3150 4275 
Q 2750 4300 2225 4300 
Q 2275 4125 2375 3850 
Q 2100 3825 1875 3725 
Q 1800 4025 1725 4300 
L 1275 4300 
Q 1150 4075 875 3750 
Q 650 3875 375 3950 
Q 625 4175 875 4487 
Q 1125 4800 1350 5250 
z
M 3850 5225 
Q 4100 5125 4450 5050 
Q 4275 4900 4125 4675 
L 5100 4675 
Q 5350 4675 5775 4700 
L 5775 4275 
Q 5400 4300 4850 4300 
Q 4925 4150 5050 3900 
Q 4800 3875 4550 3800 
Q 4475 4050 4400 4300 
L 3850 4300 
Q 3650 3975 3475 3750 
Q 3225 3900 3000 3950 
Q 3300 4250 3512 4562 
Q 3725 4875 3850 5225 
z
M 2725 1300 
Q 2725 1050 2700 850 
L 4000 850 
L 4000 1300 
L 2725 1300 
z
M 1325 3625 
L 5050 3625 
Q 5025 3175 5025 2475 
Q 5025 1775 5050 1300 
L 4475 1300 
L 4475 850 
L 5125 850 
Q 5500 850 5975 875 
L 5975 475 
Q 5500 500 5125 500 
L 4475 500 
Q 4475 -75 4500 -625 
L 3975 -625 
Q 4000 -75 4000 500 
L 2650 500 
Q 2500 100 2162 -175 
Q 1825 -450 1150 -675 
Q 1025 -425 800 -250 
Q 1325 -150 1662 37 
Q 2000 225 2150 500 
L 1300 500 
Q 900 500 425 475 
L 425 875 
Q 925 850 1300 850 
L 2225 850 
Q 2275 1050 2275 1300 
L 1325 1300 
Q 1350 1750 1350 2462 
Q 1350 3175 1325 3625 
z
M 1825 3275 
L 1825 2975 
L 4550 2975 
L 4550 3275 
L 1825 3275 
z
M 1825 2625 
L 1825 2325 
L 4550 2325 
L 4550 2625 
L 1825 2625 
z
M 1825 1975 
L 1825 1650 
L 4550 1650 
L 4550 1975 
L 1825 1975 
z
" transform="scale(0.015625)"/>
      <path id="SimHei-6cd5" d="M 750 4500 
Q 925 4675 1075 4875 
Q 1575 4550 2100 4100 
Q 1900 3950 1725 3725 
Q 1275 4150 750 4500 
z
M 325 2875 
Q 475 3050 600 3275 
Q 1125 3025 1775 2650 
Q 1600 2500 1450 2225 
Q 950 2575 325 2875 
z
M 925 -525 
Q 725 -325 375 -150 
Q 675 125 1025 650 
Q 1375 1175 1700 1750 
Q 1825 1525 2050 1400 
Q 1825 1100 1487 512 
Q 1150 -75 925 -525 
z
M 4700 1350 
Q 5000 900 5262 500 
Q 5525 100 5725 -250 
Q 5500 -375 5275 -575 
Q 5100 -250 4975 -50 
Q 4750 -75 4325 -125 
Q 3900 -175 3425 -262 
Q 2950 -350 2575 -475 
Q 2500 -200 2350 100 
Q 2650 225 3000 750 
Q 3350 1275 3625 2075 
L 2925 2075 
Q 2475 2075 2100 2050 
L 2100 2500 
Q 2475 2475 2950 2475 
L 3800 2475 
L 3800 3575 
L 3250 3575 
Q 2850 3575 2500 3550 
L 2500 4000 
Q 2850 3975 3225 3975 
L 3800 3975 
Q 3800 4525 3775 4975 
L 4300 4975 
Q 4275 4600 4275 3975 
L 5000 3975 
Q 5350 3975 5725 4000 
L 5725 3550 
Q 5350 3575 5025 3575 
L 4275 3575 
L 4275 2475 
L 5150 2475 
Q 5575 2475 6025 2500 
L 6025 2050 
Q 5575 2075 5150 2075 
L 3700 2075 
Q 3875 1925 4225 1750 
Q 3975 1575 3675 1087 
Q 3375 600 2975 75 
Q 3950 175 4800 275 
Q 4550 750 4250 1125 
Q 4475 1200 4700 1350 
z
" transform="scale(0.015625)"/>
      <path id="SimHei-7684" d="M 1525 5100 
Q 1850 5025 2200 4925 
Q 2100 4775 2025 4487 
Q 1950 4200 1900 3975 
L 2975 3975 
Q 2950 3525 2950 2900 
L 2950 700 
Q 2950 300 2975 -225 
L 2500 -225 
L 2500 300 
L 1200 300 
L 1200 -275 
L 725 -275 
Q 750 350 750 650 
L 750 2875 
Q 750 3525 725 3975 
L 1425 3975 
Q 1450 4225 1475 4462 
Q 1500 4700 1525 5100 
z
M 1200 3525 
L 1200 2425 
L 2500 2425 
L 2500 3525 
L 1200 3525 
z
M 1200 1950 
L 1200 775 
L 2500 775 
L 2500 1950 
L 1200 1950 
z
M 5850 3925 
Q 5800 3450 5775 3000 
L 5600 175 
Q 5525 -275 5150 -400 
Q 4775 -525 4350 -550 
Q 4350 -275 4175 25 
Q 4600 0 4850 37 
Q 5100 75 5150 350 
L 5350 3475 
L 4025 3475 
Q 3825 3050 3550 2525 
Q 3350 2675 3125 2775 
Q 3275 3000 3462 3400 
Q 3650 3800 3787 4262 
Q 3925 4725 3975 5025 
Q 4300 4875 4600 4800 
Q 4475 4600 4375 4387 
Q 4275 4175 4200 3925 
L 5850 3925 
z
M 3650 2300 
Q 3825 2400 4075 2550 
Q 4200 2325 4325 2050 
Q 4450 1775 4600 1375 
Q 4400 1300 4150 1150 
Q 4075 1425 3937 1750 
Q 3800 2075 3650 2300 
z
" transform="scale(0.015625)"/>
      <path id="SimHei-51fd" d="M 1025 4650 
Q 1475 4625 1900 4625 
L 5350 4625 
L 5350 4125 
Q 4950 4025 4350 3775 
Q 3750 3525 3425 3350 
L 3425 1025 
Q 3425 575 3150 500 
Q 2875 425 2475 350 
Q 2425 625 2300 925 
Q 2700 900 2825 950 
Q 2950 1000 2950 1275 
L 2950 2925 
Q 2950 3375 2900 3650 
Q 3250 3750 3687 3925 
Q 4125 4100 4325 4225 
L 1900 4225 
Q 1400 4225 1025 4200 
L 1025 4650 
z
M 2575 2775 
Q 2425 2600 2275 2425 
Q 2100 2625 1912 2800 
Q 1725 2975 1475 3175 
Q 1625 3350 1750 3525 
Q 1975 3325 2187 3125 
Q 2400 2925 2575 2775 
z
M 2500 2100 
Q 2550 1900 2650 1675 
Q 2425 1525 2162 1350 
Q 1900 1175 1575 900 
Q 1450 1100 1275 1350 
Q 1625 1525 1925 1700 
Q 2225 1875 2500 2100 
z
M 4525 3400 
Q 4700 3200 4900 3025 
Q 4725 2950 4475 2775 
Q 4225 2600 3950 2400 
Q 3800 2575 3650 2725 
Q 3925 2900 4112 3037 
Q 4300 3175 4525 3400 
z
M 3575 1725 
Q 3750 1900 3900 2050 
Q 4100 1900 4350 1700 
Q 4600 1500 4875 1250 
Q 4700 1075 4525 850 
Q 4300 1100 4112 1275 
Q 3925 1450 3575 1725 
z
M 1225 2925 
Q 1175 2650 1175 2350 
L 1175 175 
L 5125 175 
L 5125 2100 
Q 5125 2475 5075 2825 
L 5600 2825 
Q 5575 2375 5575 2100 
L 5575 25 
Q 5575 -300 5600 -625 
L 5125 -625 
L 5125 -250 
L 650 -250 
Q 700 25 700 1300 
Q 700 2575 675 2925 
L 1225 2925 
z
" transform="scale(0.015625)"/>
     </defs>
     <use xlink:href="#SimHei-31"/>
     <use xlink:href="#SimHei-30" x="50"/>
     <use xlink:href="#SimHei-30" x="100"/>
     <use xlink:href="#SimHei-6b21" x="150"/>
     <use xlink:href="#SimHei-8bd5" x="250"/>
     <use xlink:href="#SimHei-9a8c" x="350"/>
     <use xlink:href="#SimHei-4e0b" x="450"/>
     <use xlink:href="#SimHei-6807" x="550"/>
     <use xlink:href="#SimHei-51c6" x="650"/>
     <use xlink:href="#SimHei-8fdb" x="750"/>
     <use xlink:href="#SimHei-5316" x="850"/>
     <use xlink:href="#SimHei-89c4" x="950"/>
     <use xlink:href="#SimHei-5212" x="1050"/>
     <use xlink:href="#SimHei-7b97" x="1150"/>
     <use xlink:href="#SimHei-6cd5" x="1250"/>
     <use xlink:href="#SimHei-7684" x="1350"/>
     <use xlink:href="#SimHei-5e73" x="1450"/>
     <use xlink:href="#SimHei-5747" x="1550"/>
     <use xlink:href="#SimHei-6700" x="1650"/>
     <use xlink:href="#SimHei-5c0f" x="1750"/>
     <use xlink:href="#SimHei-51fd" x="1850"/>
     <use xlink:href="#SimHei-6570" x="1950"/>
     <use xlink:href="#SimHei-503c" x="2050"/>
    </g>
   </g>
  </g>
 </g>
 <defs>
  <clipPath id="pdacbbdfdbd">
   <rect x="42.301563" y="22.7625" width="334.8" height="217.44"/>
  </clipPath>
 </defs>
</svg>
