<?xml version="1.0" encoding="utf-8" standalone="no"?>
<!DOCTYPE svg PUBLIC "-//W3C//DTD SVG 1.1//EN"
  "http://www.w3.org/Graphics/SVG/1.1/DTD/svg11.dtd">
<svg xmlns:xlink="http://www.w3.org/1999/xlink" width="384.2625pt" height="275.93375pt" viewBox="0 0 384.2625 275.93375" xmlns="http://www.w3.org/2000/svg" version="1.1">
 <metadata>
  <rdf:RDF xmlns:dc="http://purl.org/dc/elements/1.1/" xmlns:cc="http://creativecommons.org/ns#" xmlns:rdf="http://www.w3.org/1999/02/22-rdf-syntax-ns#">
   <cc:Work>
    <dc:type rdf:resource="http://purl.org/dc/dcmitype/StillImage"/>
    <dc:date>2022-06-27T19:14:49.495587</dc:date>
    <dc:format>image/svg+xml</dc:format>
    <dc:creator>
     <cc:Agent>
      <dc:title>Matplotlib v3.5.1, https://matplotlib.org/</dc:title>
     </cc:Agent>
    </dc:creator>
   </cc:Work>
  </rdf:RDF>
 </metadata>
 <defs>
  <style type="text/css">*{stroke-linejoin: round; stroke-linecap: butt}</style>
 </defs>
 <g id="figure_1">
  <g id="patch_1">
   <path d="M 0 275.93375 
L 384.2625 275.93375 
L 384.2625 0 
L 0 0 
L 0 275.93375 
z
" style="fill: none"/>
  </g>
  <g id="axes_1">
   <g id="patch_2">
    <path d="M 42.2625 240.39 
L 377.0625 240.39 
L 377.0625 22.95 
L 42.2625 22.95 
z
" style="fill: #ffffff"/>
   </g>
   <g id="matplotlib.axis_1">
    <g id="xtick_1">
     <g id="line2d_1">
      <defs>
       <path id="m6ef7880866" d="M 0 0 
L 0 3.5 
" style="stroke: #000000; stroke-width: 0.8"/>
      </defs>
      <g>
       <use xlink:href="#m6ef7880866" x="57.480682" y="240.39" style="stroke: #000000; stroke-width: 0.8"/>
      </g>
     </g>
     <g id="text_1">
      <!-- 0 -->
      <g transform="translate(54.980682 254.265)scale(0.1 -0.1)">
       <defs>
        <path id="SimHei-30" d="M 225 2537 
Q 250 3200 412 3587 
Q 575 3975 875 4225 
Q 1175 4475 1612 4475 
Q 2050 4475 2375 4112 
Q 2700 3750 2800 3200 
Q 2900 2650 2862 1937 
Q 2825 1225 2612 775 
Q 2400 325 1975 150 
Q 1550 -25 1125 187 
Q 700 400 525 750 
Q 350 1100 275 1487 
Q 200 1875 225 2537 
z
M 750 2687 
Q 675 2000 800 1462 
Q 925 925 1212 700 
Q 1500 475 1800 612 
Q 2100 750 2237 1162 
Q 2375 1575 2375 2062 
Q 2375 2550 2337 2950 
Q 2300 3350 2112 3675 
Q 1925 4000 1612 4012 
Q 1300 4025 1062 3700 
Q 825 3375 750 2687 
z
" transform="scale(0.015625)"/>
       </defs>
       <use xlink:href="#SimHei-30"/>
      </g>
     </g>
    </g>
    <g id="xtick_2">
     <g id="line2d_2">
      <g>
       <use xlink:href="#m6ef7880866" x="118.365586" y="240.39" style="stroke: #000000; stroke-width: 0.8"/>
      </g>
     </g>
     <g id="text_2">
      <!-- 1000 -->
      <g transform="translate(108.365586 254.265)scale(0.1 -0.1)">
       <defs>
        <path id="SimHei-31" d="M 1400 3600 
Q 1075 3275 575 2975 
L 575 3450 
Q 1200 3875 1600 4450 
L 1900 4450 
L 1900 150 
L 1400 150 
L 1400 3600 
z
" transform="scale(0.015625)"/>
       </defs>
       <use xlink:href="#SimHei-31"/>
       <use xlink:href="#SimHei-30" x="50"/>
       <use xlink:href="#SimHei-30" x="100"/>
       <use xlink:href="#SimHei-30" x="150"/>
      </g>
     </g>
    </g>
    <g id="xtick_3">
     <g id="line2d_3">
      <g>
       <use xlink:href="#m6ef7880866" x="179.25049" y="240.39" style="stroke: #000000; stroke-width: 0.8"/>
      </g>
     </g>
     <g id="text_3">
      <!-- 2000 -->
      <g transform="translate(169.25049 254.265)scale(0.1 -0.1)">
       <defs>
        <path id="SimHei-32" d="M 300 250 
Q 325 625 650 925 
Q 975 1225 1475 1862 
Q 1975 2500 2125 2850 
Q 2275 3200 2237 3450 
Q 2200 3700 2000 3862 
Q 1800 4025 1537 4000 
Q 1275 3975 1037 3800 
Q 800 3625 675 3275 
L 200 3350 
Q 400 3925 712 4187 
Q 1025 4450 1450 4475 
Q 1700 4500 1900 4462 
Q 2100 4425 2312 4287 
Q 2525 4150 2662 3875 
Q 2800 3600 2762 3212 
Q 2725 2825 2375 2287 
Q 2025 1750 1025 600 
L 2825 600 
L 2825 150 
L 300 150 
L 300 250 
z
" transform="scale(0.015625)"/>
       </defs>
       <use xlink:href="#SimHei-32"/>
       <use xlink:href="#SimHei-30" x="50"/>
       <use xlink:href="#SimHei-30" x="100"/>
       <use xlink:href="#SimHei-30" x="150"/>
      </g>
     </g>
    </g>
    <g id="xtick_4">
     <g id="line2d_4">
      <g>
       <use xlink:href="#m6ef7880866" x="240.135395" y="240.39" style="stroke: #000000; stroke-width: 0.8"/>
      </g>
     </g>
     <g id="text_4">
      <!-- 3000 -->
      <g transform="translate(230.135395 254.265)scale(0.1 -0.1)">
       <defs>
        <path id="SimHei-33" d="M 250 1225 
L 700 1300 
Q 800 975 1025 762 
Q 1250 550 1587 562 
Q 1925 575 2125 837 
Q 2325 1100 2300 1437 
Q 2275 1775 2037 1962 
Q 1800 2150 1275 2225 
L 1275 2550 
Q 1800 2600 2037 2825 
Q 2275 3050 2250 3412 
Q 2225 3775 1925 3937 
Q 1625 4100 1287 3975 
Q 950 3850 750 3275 
L 300 3350 
Q 450 3800 712 4100 
Q 975 4400 1425 4450 
Q 1875 4500 2212 4337 
Q 2550 4175 2687 3837 
Q 2825 3500 2725 3100 
Q 2625 2700 2150 2400 
Q 2500 2250 2687 1950 
Q 2875 1650 2812 1162 
Q 2750 675 2375 375 
Q 2000 75 1525 87 
Q 1050 100 700 387 
Q 350 675 250 1225 
z
" transform="scale(0.015625)"/>
       </defs>
       <use xlink:href="#SimHei-33"/>
       <use xlink:href="#SimHei-30" x="50"/>
       <use xlink:href="#SimHei-30" x="100"/>
       <use xlink:href="#SimHei-30" x="150"/>
      </g>
     </g>
    </g>
    <g id="xtick_5">
     <g id="line2d_5">
      <g>
       <use xlink:href="#m6ef7880866" x="301.020299" y="240.39" style="stroke: #000000; stroke-width: 0.8"/>
      </g>
     </g>
     <g id="text_5">
      <!-- 4000 -->
      <g transform="translate(291.020299 254.265)scale(0.1 -0.1)">
       <defs>
        <path id="SimHei-34" d="M 2000 1100 
L 75 1100 
L 75 1525 
L 2100 4450 
L 2475 4450 
L 2475 1525 
L 3075 1525 
L 3075 1100 
L 2475 1100 
L 2475 150 
L 2000 150 
L 2000 1100 
z
M 2000 1525 
L 2000 3500 
L 600 1525 
L 2000 1525 
z
" transform="scale(0.015625)"/>
       </defs>
       <use xlink:href="#SimHei-34"/>
       <use xlink:href="#SimHei-30" x="50"/>
       <use xlink:href="#SimHei-30" x="100"/>
       <use xlink:href="#SimHei-30" x="150"/>
      </g>
     </g>
    </g>
    <g id="xtick_6">
     <g id="line2d_6">
      <g>
       <use xlink:href="#m6ef7880866" x="361.905203" y="240.39" style="stroke: #000000; stroke-width: 0.8"/>
      </g>
     </g>
     <g id="text_6">
      <!-- 5000 -->
      <g transform="translate(351.905203 254.265)scale(0.1 -0.1)">
       <defs>
        <path id="SimHei-35" d="M 550 1325 
Q 725 650 1150 575 
Q 1575 500 1837 662 
Q 2100 825 2212 1087 
Q 2325 1350 2312 1675 
Q 2300 2000 2137 2225 
Q 1975 2450 1725 2525 
Q 1475 2600 1162 2525 
Q 850 2450 650 2175 
L 225 2225 
Q 275 2375 700 4375 
L 2675 4375 
L 2675 3925 
L 1075 3925 
Q 950 3250 825 2850 
Q 1200 3025 1525 3012 
Q 1850 3000 2150 2862 
Q 2450 2725 2587 2487 
Q 2725 2250 2787 2012 
Q 2850 1775 2837 1500 
Q 2825 1225 2725 937 
Q 2625 650 2425 462 
Q 2225 275 1937 162 
Q 1650 50 1275 75 
Q 900 100 562 350 
Q 225 600 100 1200 
L 550 1325 
z
" transform="scale(0.015625)"/>
       </defs>
       <use xlink:href="#SimHei-35"/>
       <use xlink:href="#SimHei-30" x="50"/>
       <use xlink:href="#SimHei-30" x="100"/>
       <use xlink:href="#SimHei-30" x="150"/>
      </g>
     </g>
    </g>
    <g id="text_7">
     <!-- 迭代次数 -->
     <g transform="translate(189.6625 267.48375)scale(0.1 -0.1)">
      <defs>
       <path id="SimHei-8fed" d="M 3900 1875 
Q 3600 1350 3287 1012 
Q 2975 675 2450 275 
Q 2350 475 2025 700 
Q 2600 975 3012 1425 
Q 3425 1875 3600 2450 
Q 2350 2450 1950 2425 
L 1950 2900 
Q 2375 2875 3675 2875 
Q 3725 3250 3750 3775 
L 2800 3775 
Q 2675 3450 2550 3175 
Q 2300 3300 2075 3350 
Q 2275 3675 2425 4112 
Q 2575 4550 2700 5100 
Q 2850 5000 3225 4925 
Q 3075 4725 2950 4200 
L 3750 4200 
Q 3750 4850 3700 5250 
L 4275 5225 
Q 4225 4925 4200 4200 
L 4950 4200 
Q 5175 4200 5575 4225 
L 5575 3725 
Q 5175 3775 4875 3775 
L 4200 3775 
Q 4175 3250 4125 2875 
L 5150 2875 
Q 5475 2875 5925 2900 
L 5925 2425 
Q 5475 2450 5075 2450 
L 4100 2450 
L 4050 2300 
Q 4650 1775 5725 700 
Q 5600 650 5275 300 
Q 4775 975 3900 1875 
z
M 1550 2950 
L 1550 625 
Q 2200 -25 3712 -12 
Q 5225 0 6125 100 
Q 5950 -225 5900 -475 
L 3575 -475 
Q 2975 -475 2525 -387 
Q 2075 -300 1725 -50 
Q 1375 200 1162 12 
Q 950 -175 650 -550 
Q 500 -350 250 -175 
Q 775 275 1075 575 
L 1075 2525 
Q 750 2525 350 2500 
L 350 2975 
Q 775 2950 1075 2950 
L 1550 2950 
z
M 1125 5025 
Q 1525 4275 1675 3900 
Q 1450 3875 1175 3650 
Q 950 4275 650 4750 
Q 900 4850 1125 5025 
z
" transform="scale(0.015625)"/>
       <path id="SimHei-4ee3" d="M 3300 2950 
Q 3175 4575 3150 5100 
Q 3300 5075 3725 5025 
Q 3675 4725 3800 3050 
Q 5000 3275 5650 3475 
L 5775 3000 
Q 5500 2975 3850 2625 
Q 4150 1050 4737 450 
Q 5325 -150 5412 125 
Q 5500 400 5525 725 
Q 5800 550 6075 500 
Q 5900 -200 5737 -425 
Q 5575 -650 5137 -500 
Q 4700 -350 4187 300 
Q 3675 950 3350 2525 
Q 2400 2325 2175 2250 
L 2025 2725 
Q 2425 2775 3300 2950 
z
M 2250 4975 
Q 2100 4725 1700 3650 
L 1700 475 
Q 1700 -50 1725 -600 
L 1200 -600 
Q 1225 -50 1225 475 
L 1225 2750 
Q 850 2150 600 1850 
Q 450 2050 225 2225 
Q 625 2600 1050 3425 
Q 1475 4250 1675 5200 
Q 2050 5025 2250 4975 
z
M 4700 4875 
Q 5150 4325 5325 4050 
Q 5100 3900 4875 3725 
Q 4650 4150 4300 4575 
Q 4500 4700 4700 4875 
z
" transform="scale(0.015625)"/>
       <path id="SimHei-6b21" d="M 4150 3025 
Q 4000 2550 4050 2187 
Q 4100 1825 4275 1450 
Q 4450 1075 4800 750 
Q 5150 425 5475 212 
Q 5800 0 6150 -150 
Q 5875 -350 5750 -625 
Q 5250 -325 4887 -25 
Q 4525 275 4275 612 
Q 4025 950 3825 1425 
Q 3525 625 2950 125 
Q 2375 -375 1850 -650 
Q 1675 -400 1475 -225 
Q 2025 0 2487 362 
Q 2950 725 3162 1100 
Q 3375 1475 3450 1825 
Q 3525 2175 3537 2400 
Q 3550 2625 3525 3125 
Q 3825 3050 4150 3025 
z
M 3700 4975 
Q 3625 4900 3475 4575 
Q 3325 4250 3250 4075 
L 5775 4075 
Q 5650 3725 5550 3362 
Q 5450 3000 5275 2500 
Q 5000 2575 4775 2600 
Q 5025 3350 5100 3650 
L 3100 3650 
Q 2975 3400 2812 3100 
Q 2650 2800 2425 2450 
Q 2275 2600 1975 2700 
Q 2300 3050 2625 3762 
Q 2950 4475 3125 5200 
Q 3450 5025 3700 4975 
z
M 2025 2000 
Q 1825 1675 1475 1087 
Q 1125 500 725 -200 
Q 500 -25 250 175 
Q 725 725 1037 1262 
Q 1350 1800 1575 2325 
Q 1750 2175 2025 2000 
z
M 900 4750 
Q 1725 3725 1950 3375 
Q 1750 3250 1500 3050 
Q 1250 3525 500 4425 
Q 700 4575 900 4750 
z
" transform="scale(0.015625)"/>
       <path id="SimHei-6570" d="M 4525 4925 
Q 4475 4800 4400 4587 
Q 4325 4375 4175 3825 
L 5325 3825 
Q 5575 3825 5925 3850 
L 5925 3400 
Q 5650 3425 5500 3425 
Q 5500 3025 5362 2162 
Q 5225 1300 4875 675 
Q 5125 375 5437 137 
Q 5750 -100 6025 -200 
Q 5725 -425 5625 -625 
Q 5325 -450 5075 -225 
Q 4825 0 4575 325 
Q 4300 25 3987 -187 
Q 3675 -400 3200 -650 
Q 3075 -425 2850 -300 
Q 3225 -150 3650 125 
Q 4075 400 4300 675 
Q 4125 1025 3962 1425 
Q 3800 1825 3675 2475 
Q 3600 2275 3425 1950 
Q 3250 2050 3000 2150 
Q 3400 2850 3650 3675 
Q 3900 4500 3975 5100 
Q 4275 4975 4525 4925 
z
M 2100 2250 
Q 2000 2150 1875 1925 
L 3250 1925 
Q 3100 1300 2725 675 
Q 3125 525 3350 400 
Q 3225 225 3125 25 
Q 2900 175 2450 325 
Q 1950 -225 725 -650 
Q 600 -375 400 -275 
Q 1575 0 2000 475 
Q 1300 650 850 775 
Q 1000 1000 1250 1525 
Q 1000 1525 425 1500 
L 425 1950 
Q 900 1925 1400 1925 
Q 1500 2150 1550 2425 
Q 1825 2325 2100 2250 
z
M 1775 3950 
Q 1775 4550 1750 5100 
L 2250 5100 
Q 2225 4575 2225 3950 
Q 3075 3950 3425 3975 
L 3425 3525 
Q 3075 3550 2225 3550 
Q 2225 2825 2250 2425 
L 1750 2425 
Q 1775 2775 1775 3300 
Q 1650 3100 1300 2787 
Q 950 2475 650 2300 
Q 525 2525 275 2625 
Q 500 2700 875 2975 
Q 1250 3250 1450 3550 
Q 950 3550 500 3525 
L 500 3975 
Q 925 3950 1775 3950 
z
M 3975 3175 
Q 4200 1700 4600 1125 
Q 4850 1700 4937 2287 
Q 5025 2875 5050 3425 
L 4075 3425 
L 3975 3175 
z
M 1450 1000 
Q 1750 925 2275 800 
Q 2475 1050 2650 1525 
L 1725 1525 
Q 1600 1275 1450 1000 
z
M 3325 4825 
Q 3200 4625 3125 4450 
Q 3050 4275 2925 4025 
Q 2725 4125 2525 4175 
Q 2725 4500 2900 5000 
Q 3150 4875 3325 4825 
z
M 2575 3375 
Q 2900 3050 3200 2725 
Q 3050 2600 2875 2425 
Q 2525 2850 2300 3100 
Q 2450 3225 2575 3375 
z
M 925 5000 
Q 1275 4650 1500 4300 
L 1125 4075 
Q 950 4425 600 4725 
Q 825 4875 925 5000 
z
" transform="scale(0.015625)"/>
      </defs>
      <use xlink:href="#SimHei-8fed"/>
      <use xlink:href="#SimHei-4ee3" x="100"/>
      <use xlink:href="#SimHei-6b21" x="200"/>
      <use xlink:href="#SimHei-6570" x="300"/>
     </g>
    </g>
   </g>
   <g id="matplotlib.axis_2">
    <g id="ytick_1">
     <g id="line2d_7">
      <defs>
       <path id="m658417e36a" d="M 0 0 
L -3.5 0 
" style="stroke: #000000; stroke-width: 0.8"/>
      </defs>
      <g>
       <use xlink:href="#m658417e36a" x="42.2625" y="207.263881" style="stroke: #000000; stroke-width: 0.8"/>
      </g>
     </g>
     <g id="text_8">
      <!-- 250 -->
      <g transform="translate(20.2625 210.701381)scale(0.1 -0.1)">
       <use xlink:href="#SimHei-32"/>
       <use xlink:href="#SimHei-35" x="50"/>
       <use xlink:href="#SimHei-30" x="100"/>
      </g>
     </g>
    </g>
    <g id="ytick_2">
     <g id="line2d_8">
      <g>
       <use xlink:href="#m658417e36a" x="42.2625" y="159.149914" style="stroke: #000000; stroke-width: 0.8"/>
      </g>
     </g>
     <g id="text_9">
      <!-- 300 -->
      <g transform="translate(20.2625 162.587414)scale(0.1 -0.1)">
       <use xlink:href="#SimHei-33"/>
       <use xlink:href="#SimHei-30" x="50"/>
       <use xlink:href="#SimHei-30" x="100"/>
      </g>
     </g>
    </g>
    <g id="ytick_3">
     <g id="line2d_9">
      <g>
       <use xlink:href="#m658417e36a" x="42.2625" y="111.035948" style="stroke: #000000; stroke-width: 0.8"/>
      </g>
     </g>
     <g id="text_10">
      <!-- 350 -->
      <g transform="translate(20.2625 114.473448)scale(0.1 -0.1)">
       <use xlink:href="#SimHei-33"/>
       <use xlink:href="#SimHei-35" x="50"/>
       <use xlink:href="#SimHei-30" x="100"/>
      </g>
     </g>
    </g>
    <g id="ytick_4">
     <g id="line2d_10">
      <g>
       <use xlink:href="#m658417e36a" x="42.2625" y="62.921981" style="stroke: #000000; stroke-width: 0.8"/>
      </g>
     </g>
     <g id="text_11">
      <!-- 400 -->
      <g transform="translate(20.2625 66.359481)scale(0.1 -0.1)">
       <use xlink:href="#SimHei-34"/>
       <use xlink:href="#SimHei-30" x="50"/>
       <use xlink:href="#SimHei-30" x="100"/>
      </g>
     </g>
    </g>
    <g id="text_12">
     <!-- 平均最小值 -->
     <g transform="translate(15.0125 156.67)rotate(-90)scale(0.1 -0.1)">
      <defs>
       <path id="SimHei-5e73" d="M 4525 4825 
Q 4900 4825 5450 4850 
L 5450 4375 
Q 4925 4400 4525 4400 
L 3475 4400 
L 3475 2025 
L 5000 2025 
Q 5550 2025 6025 2050 
L 6025 1575 
Q 5550 1600 5000 1600 
L 3475 1600 
L 3475 450 
Q 3475 -100 3500 -600 
L 2925 -600 
Q 2950 -100 2950 450 
L 2950 1600 
L 1125 1600 
Q 775 1600 375 1575 
L 375 2050 
Q 775 2025 1175 2025 
L 2950 2025 
L 2950 4400 
L 1775 4400 
Q 1400 4400 875 4375 
L 875 4850 
Q 1400 4825 1750 4825 
L 4525 4825 
z
M 3925 2600 
Q 4500 3300 4900 4125 
Q 5150 3950 5400 3825 
Q 4775 2850 4350 2300 
Q 4150 2475 3925 2600 
z
M 1975 2350 
Q 1600 3100 1050 3725 
Q 1250 3875 1450 4050 
Q 2075 3300 2450 2725 
Q 2150 2500 1975 2350 
z
" transform="scale(0.015625)"/>
       <path id="SimHei-5747" d="M 5775 275 
Q 5775 -325 5362 -450 
Q 4950 -575 4425 -600 
Q 4375 -275 4250 25 
Q 4950 -25 5125 62 
Q 5300 150 5300 500 
L 5375 3700 
L 3550 3700 
Q 3425 3375 3262 3037 
Q 3100 2700 2925 2400 
Q 2675 2550 2475 2625 
Q 3150 3625 3500 5200 
Q 3800 5100 4075 5025 
Q 3975 4875 3875 4650 
Q 3775 4425 3675 4125 
L 5900 4125 
L 5775 275 
z
M 1250 3625 
L 1250 4375 
Q 1250 4775 1225 5100 
L 1775 5100 
Q 1750 4725 1750 4375 
L 1750 3625 
L 1900 3625 
Q 2200 3625 2525 3650 
L 2525 3150 
Q 2200 3175 1900 3175 
L 1750 3175 
L 1750 1100 
L 2500 1375 
Q 2475 1125 2525 900 
Q 1225 475 962 362 
Q 700 250 475 150 
Q 375 475 250 750 
Q 575 800 800 850 
Q 1025 900 1250 975 
L 1250 3175 
L 1125 3175 
Q 850 3175 400 3150 
L 400 3650 
Q 850 3625 1100 3625 
L 1250 3625 
z
M 4950 1625 
Q 4675 1425 4137 1050 
Q 3600 675 3175 300 
Q 3000 575 2850 775 
Q 3350 1050 3762 1325 
Q 4175 1600 4775 2075 
Q 4825 1850 4950 1625 
z
M 3775 3150 
Q 4125 2800 4475 2300 
Q 4250 2125 4100 1975 
Q 3900 2325 3450 2825 
Q 3600 3000 3775 3150 
z
" transform="scale(0.015625)"/>
       <path id="SimHei-6700" d="M 475 275 
Q 675 300 1100 350 
L 1100 2450 
Q 775 2450 425 2425 
L 425 2850 
Q 775 2825 1125 2825 
L 5025 2825 
Q 5475 2825 5900 2850 
L 5900 2425 
Q 5475 2450 5025 2450 
L 3050 2450 
L 3050 675 
L 3400 775 
Q 3400 550 3425 400 
Q 3225 350 3050 325 
Q 3050 -125 3075 -550 
L 2600 -550 
Q 2625 -125 2625 250 
Q 2350 200 1812 87 
Q 1275 -25 650 -175 
Q 575 100 475 275 
z
M 5100 4925 
Q 5075 4600 5075 4325 
L 5075 3875 
Q 5075 3600 5100 3250 
L 1275 3250 
Q 1300 3600 1300 3875 
L 1300 4325 
Q 1300 4600 1275 4925 
L 5100 4925 
z
M 3300 2050 
Q 3750 2025 4125 2025 
L 5375 2025 
Q 5100 975 4725 400 
Q 5350 0 5925 -100 
Q 5700 -275 5650 -500 
Q 5025 -300 4475 150 
Q 4150 -200 3600 -575 
Q 3500 -425 3250 -275 
Q 3775 -100 4150 350 
Q 3725 775 3500 1675 
L 3300 1675 
L 3300 2050 
z
M 4600 4250 
L 4600 4600 
L 1750 4600 
L 1750 4250 
L 4600 4250 
z
M 4600 3575 
L 4600 3900 
L 1750 3900 
L 1750 3575 
L 4600 3575 
z
M 3900 1675 
Q 4000 1075 4400 625 
Q 4700 1050 4850 1675 
L 3900 1675 
z
M 2625 1250 
L 2625 1675 
L 1525 1675 
L 1525 1250 
L 2625 1250 
z
M 2625 575 
L 2625 925 
L 1525 925 
L 1525 425 
L 2625 575 
z
M 2625 2025 
L 2625 2450 
L 1525 2450 
L 1525 2025 
L 2625 2025 
z
" transform="scale(0.015625)"/>
       <path id="SimHei-5c0f" d="M 3500 5150 
Q 3475 4800 3475 4200 
L 3475 175 
Q 3475 -300 3225 -425 
Q 2975 -550 2375 -600 
Q 2325 -300 2150 -25 
Q 2700 -25 2837 0 
Q 2975 25 2975 300 
L 2975 4200 
Q 2975 4650 2950 5150 
L 3500 5150 
z
M 2075 3400 
Q 1850 2775 1550 1962 
Q 1250 1150 1025 750 
Q 775 950 500 1000 
Q 925 1750 1175 2487 
Q 1425 3225 1500 3575 
Q 1800 3425 2075 3400 
z
M 4675 3600 
Q 5675 1800 5875 1150 
Q 5625 1100 5375 925 
Q 5000 2000 4225 3325 
Q 4425 3425 4675 3600 
z
" transform="scale(0.015625)"/>
       <path id="SimHei-503c" d="M 3675 4450 
L 3675 5100 
Q 3975 5075 4350 5050 
Q 4225 4875 4200 4450 
L 5125 4450 
Q 5550 4450 5875 4475 
L 5875 4025 
Q 5525 4050 5125 4050 
L 4175 4050 
L 4125 3500 
L 5400 3500 
Q 5375 3200 5375 2700 
L 5375 150 
Q 5875 150 6100 175 
L 6100 -275 
Q 5775 -250 5200 -250 
L 2850 -250 
Q 2275 -250 1900 -275 
L 1900 175 
Q 2125 150 2600 150 
L 2600 2700 
Q 2600 3175 2575 3500 
L 3600 3500 
L 3650 4050 
L 3200 4050 
Q 2575 4050 2225 4025 
L 2225 4475 
Q 2550 4450 3200 4450 
L 3675 4450 
z
M 2225 4900 
Q 2025 4675 1650 3750 
L 1650 450 
Q 1650 -75 1675 -550 
L 1150 -550 
Q 1175 -125 1175 375 
L 1175 2950 
Q 875 2450 625 2150 
Q 425 2425 250 2575 
Q 500 2825 937 3537 
Q 1375 4250 1625 5150 
Q 1975 4975 2225 4900 
z
M 4925 2650 
L 4925 3150 
L 3075 3150 
L 3075 2650 
L 4925 2650 
z
M 4925 150 
L 4925 625 
L 3075 625 
L 3075 150 
L 4925 150 
z
M 4925 1000 
L 4925 1450 
L 3075 1450 
L 3075 1000 
L 4925 1000 
z
M 4925 1825 
L 4925 2275 
L 3075 2275 
L 3075 1825 
L 4925 1825 
z
" transform="scale(0.015625)"/>
      </defs>
      <use xlink:href="#SimHei-5e73"/>
      <use xlink:href="#SimHei-5747" x="100"/>
      <use xlink:href="#SimHei-6700" x="200"/>
      <use xlink:href="#SimHei-5c0f" x="300"/>
      <use xlink:href="#SimHei-503c" x="400"/>
     </g>
    </g>
   </g>
   <g id="line2d_11">
    <path d="M 57.480682 32.833636 
L 57.663337 162.104641 
L 57.845991 164.535566 
L 58.028646 166.286446 
L 58.211301 167.185323 
L 59.733423 174.497987 
L 59.794308 174.555586 
L 59.855193 174.809695 
L 60.037848 176.073365 
L 60.098733 176.130531 
L 60.342272 176.8879 
L 60.890236 178.952772 
L 61.012006 179.798629 
L 61.316431 179.896943 
L 61.80351 180.117678 
L 61.864395 180.117678 
L 62.229704 180.696692 
L 62.290589 180.778592 
L 62.595014 182.169533 
L 62.655899 182.178914 
L 62.838553 182.70683 
L 63.021208 182.70683 
L 63.142978 183.150098 
L 63.386518 183.214702 
L 63.508287 183.214702 
L 63.630057 183.59991 
L 63.995367 183.611624 
L 64.117136 183.949024 
L 64.178021 183.949024 
L 64.360676 184.083518 
L 64.482446 184.325676 
L 64.604216 184.72011 
L 64.78687 184.843671 
L 64.90864 185.021496 
L 65.091295 185.036446 
L 65.27395 185.265996 
L 65.395719 185.304833 
L 65.517489 185.422036 
L 65.700144 186.126984 
L 65.821914 186.126984 
L 66.187223 187.084313 
L 66.369878 187.19425 
L 66.491648 187.472426 
L 66.552533 187.472426 
L 66.674302 187.707134 
L 66.796072 187.760552 
L 67.100497 188.192261 
L 67.526691 188.215482 
L 67.709346 188.341887 
L 68.196425 188.38212 
L 68.439965 188.716934 
L 68.500849 188.716934 
L 68.683504 188.967885 
L 68.866159 189.021734 
L 69.048814 189.27091 
L 69.353238 189.545107 
L 69.414123 189.545107 
L 69.779432 190.351856 
L 69.962087 190.445387 
L 70.083857 190.491702 
L 70.205627 190.680643 
L 70.327397 190.680643 
L 70.449166 190.872814 
L 70.570936 190.899232 
L 70.936246 191.232454 
L 71.60598 191.45093 
L 71.788634 191.603108 
L 72.275714 191.693037 
L 73.006332 191.989411 
L 73.128102 192.076228 
L 73.310757 192.129579 
L 73.432527 192.228033 
L 73.676066 192.85915 
L 74.041376 192.909228 
L 74.284915 193.266272 
L 74.3458 193.266272 
L 74.528455 194.039715 
L 74.954649 194.11614 
L 75.198189 194.203465 
L 75.441729 194.307094 
L 75.989693 194.646826 
L 76.476772 194.754745 
L 76.659427 194.874586 
L 76.842081 194.977934 
L 77.45093 195.070225 
L 77.69447 195.325342 
L 77.755355 195.325342 
L 77.93801 196.017028 
L 77.998895 196.017028 
L 78.120664 196.281898 
L 78.425089 196.281898 
L 78.546859 196.632744 
L 78.973053 196.632744 
L 79.338362 197.18703 
L 79.399247 197.18703 
L 79.581902 197.318903 
L 79.825442 197.424169 
L 79.947211 197.709233 
L 80.068981 197.709233 
L 80.251636 197.880638 
L 80.434291 197.960147 
L 80.982255 198.038923 
L 81.16491 198.247628 
L 81.530219 198.315874 
L 81.773759 198.626221 
L 82.504377 198.67462 
L 82.687032 199.101566 
L 83.965615 199.193779 
L 84.14827 199.277189 
L 84.209155 199.277189 
L 84.452694 199.765893 
L 84.939774 199.829597 
L 85.061543 199.879186 
L 85.183313 200.226802 
L 85.244198 200.226802 
L 85.426853 200.665643 
L 86.401011 200.732608 
L 86.583666 200.832078 
L 87.618709 200.915673 
L 87.862249 200.958538 
L 88.227558 200.958538 
L 88.349328 201.14932 
L 89.749681 201.192218 
L 89.871451 201.348378 
L 90.541185 201.447749 
L 90.60207 201.496842 
L 90.72384 201.700762 
L 91.150034 201.700762 
L 91.454458 202.058028 
L 91.576228 202.072571 
L 91.697998 202.401032 
L 92.245962 202.430018 
L 92.550387 202.986077 
L 93.402775 202.995106 
L 93.524545 203.283623 
L 94.072509 203.336454 
L 94.255164 203.422234 
L 94.376934 204.006915 
L 95.777287 204.035348 
L 95.899056 204.315241 
L 96.325251 204.325935 
L 96.507905 204.509168 
L 96.994985 204.509168 
L 97.177639 204.644291 
L 97.421179 204.644291 
L 97.664719 205.178696 
L 98.821532 205.269461 
L 99.004187 205.438838 
L 99.856575 205.534604 
L 100.03923 205.668486 
L 100.404539 205.761337 
L 100.708964 205.847302 
L 101.865777 205.880138 
L 102.109317 206.448503 
L 103.692324 206.517576 
L 103.874979 206.587444 
L 105.336217 206.659173 
L 105.579756 206.95438 
L 106.310375 207.001387 
L 106.432145 207.165421 
L 106.6148 207.165421 
L 106.858339 207.423082 
L 107.893383 207.515963 
L 108.015152 207.801223 
L 108.197807 207.801223 
L 108.380462 208.041631 
L 108.624001 208.053371 
L 108.745771 208.341801 
L 109.171966 208.341801 
L 109.293735 208.575453 
L 110.267894 208.660959 
L 110.511433 209.258212 
L 111.850901 209.315274 
L 112.033556 209.694954 
L 114.834262 209.778512 
L 114.956031 209.809885 
L 115.199571 210.265053 
L 116.660809 210.358715 
L 116.782579 210.558276 
L 117.026118 210.558276 
L 117.147888 210.701827 
L 117.695852 210.778887 
L 118.000277 211.16326 
L 118.609126 211.272849 
L 118.79178 211.329547 
L 119.583284 211.404604 
L 119.826824 211.574533 
L 121.166292 211.68462 
L 121.348946 212.060928 
L 121.531601 212.201796 
L 121.957795 212.201796 
L 122.079565 212.354801 
L 124.758501 212.431979 
L 125.002041 212.491279 
L 125.732659 212.550502 
L 125.915314 212.619564 
L 126.341509 212.839508 
L 126.524163 213.10111 
L 127.680976 213.152618 
L 127.863631 213.249127 
L 127.985401 213.293726 
L 128.168056 213.385898 
L 129.263984 213.474132 
L 129.385754 213.728494 
L 130.177257 213.787921 
L 130.299027 213.934334 
L 133.099733 213.993391 
L 133.282388 214.073983 
L 134.073891 214.13255 
L 134.256546 214.229694 
L 134.80451 214.268022 
L 134.92628 214.535824 
L 135.839554 214.566254 
L 135.961323 214.786728 
L 137.605216 214.872933 
L 137.787871 214.95859 
L 139.675303 215.006537 
L 139.857957 215.118051 
L 141.13654 215.128274 
L 141.25831 215.284105 
L 144.36344 215.356752 
L 144.48521 215.64037 
L 148.442729 215.64037 
L 148.564499 215.940351 
L 150.878125 215.959262 
L 151.06078 216.084872 
L 151.121665 216.084872 
L 151.304319 216.20488 
L 152.217593 216.299274 
L 152.339363 216.572523 
L 154.470334 216.625773 
L 154.652989 216.686691 
L 158.306083 216.779638 
L 158.427853 216.967342 
L 160.49794 217.018933 
L 160.680595 217.144742 
L 161.898293 217.144742 
L 162.020062 217.482493 
L 163.60307 217.575212 
L 163.907494 217.635055 
L 164.211919 217.635055 
L 164.333689 217.801034 
L 164.942538 217.801034 
L 165.064308 218.22421 
L 166.099351 218.287997 
L 166.221121 218.461194 
L 167.986783 218.461194 
L 168.108553 218.636104 
L 169.448021 218.729804 
L 169.630675 218.812926 
L 170.909258 218.906297 
L 171.091913 219.005449 
L 175.597396 219.111967 
L 175.901821 219.30792 
L 176.206245 219.39555 
L 176.3889 219.486045 
L 177.119519 219.573198 
L 177.241288 219.815036 
L 181.929426 219.867532 
L 182.112081 219.938988 
L 182.72093 219.958944 
L 182.903585 220.07865 
L 184.973671 220.07865 
L 185.095441 220.238904 
L 186.617564 220.340842 
L 186.739334 220.67662 
L 187.591722 220.67662 
L 187.713492 220.903339 
L 187.835262 220.903339 
L 187.957032 221.143644 
L 188.444111 221.193331 
L 188.565881 221.33114 
L 191.001277 221.33114 
L 191.123047 221.518806 
L 192.27986 221.559467 
L 192.462515 221.640532 
L 193.923752 221.665313 
L 194.045522 221.827008 
L 198.003041 221.883673 
L 198.24658 222.096378 
L 200.316667 222.096378 
L 200.438437 222.306204 
L 203.239143 222.306204 
L 203.360912 222.645433 
L 205.126575 222.645433 
L 205.309229 222.855884 
L 208.17082 222.941834 
L 208.353475 223.062877 
L 213.163382 223.153056 
L 213.285152 223.359395 
L 214.015771 223.359395 
L 214.13754 223.616769 
L 219.251872 223.639971 
L 219.434527 223.744783 
L 228.445493 223.846416 
L 228.689033 223.892764 
L 232.585666 223.927765 
L 232.707436 224.144166 
L 232.950976 224.144166 
L 233.072746 224.294279 
L 233.986019 224.33974 
L 234.107789 224.577507 
L 235.690797 224.649204 
L 235.812566 224.835431 
L 237.091149 224.835431 
L 237.212919 224.993205 
L 237.760883 225.008812 
L 237.882653 225.257908 
L 238.613272 225.353466 
L 238.735042 225.511936 
L 240.500704 225.511936 
L 240.622474 225.664433 
L 247.380698 225.721401 
L 247.502468 225.982058 
L 250.059634 226.041025 
L 250.181404 226.234006 
L 254.078038 226.320669 
L 254.260692 226.436479 
L 255.539275 226.505478 
L 255.72193 226.633144 
L 257.974672 226.633144 
L 258.096441 226.779502 
L 267.411832 226.847513 
L 267.533601 227.136542 
L 279.527928 227.231943 
L 279.710582 227.295678 
L 280.258546 227.295678 
L 280.380316 227.542646 
L 282.572173 227.650978 
L 282.876597 227.664279 
L 282.998367 228.048964 
L 284.764029 228.048964 
L 284.946684 228.174416 
L 286.225267 228.195992 
L 286.407922 228.310518 
L 288.904203 228.310518 
L 289.025973 228.449174 
L 295.479773 228.552353 
L 295.662427 228.660801 
L 297.30632 228.660801 
L 297.488974 228.780177 
L 302.359767 228.809234 
L 302.481537 229.059114 
L 307.839408 229.063454 
L 307.961178 229.28228 
L 313.440819 229.318626 
L 313.562589 229.581461 
L 319.468425 229.628213 
L 319.65108 229.70229 
L 321.903821 229.70229 
L 322.025591 229.884054 
L 325.800455 229.991136 
L 326.043994 230.029906 
L 335.42027 230.092214 
L 335.602924 230.141674 
L 340.351947 230.184537 
L 340.534602 230.264065 
L 349.484683 230.373576 
L 349.667337 230.44273 
L 361.844318 230.506364 
L 361.844318 230.506364 
" clip-path="url(#p47ad5692f8)" style="fill: none; stroke: #0000ff; stroke-width: 1.5; stroke-linecap: square"/>
   </g>
   <g id="patch_3">
    <path d="M 42.2625 240.39 
L 42.2625 22.95 
" style="fill: none; stroke: #000000; stroke-width: 0.8; stroke-linejoin: miter; stroke-linecap: square"/>
   </g>
   <g id="patch_4">
    <path d="M 377.0625 240.39 
L 377.0625 22.95 
" style="fill: none; stroke: #000000; stroke-width: 0.8; stroke-linejoin: miter; stroke-linecap: square"/>
   </g>
   <g id="patch_5">
    <path d="M 42.2625 240.39 
L 377.0625 240.39 
" style="fill: none; stroke: #000000; stroke-width: 0.8; stroke-linejoin: miter; stroke-linecap: square"/>
   </g>
   <g id="patch_6">
    <path d="M 42.2625 22.95 
L 377.0625 22.95 
" style="fill: none; stroke: #000000; stroke-width: 0.8; stroke-linejoin: miter; stroke-linecap: square"/>
   </g>
   <g id="text_13">
    <!-- 100次试验下粒子群算法的平均最小函数值 -->
    <g transform="translate(98.6625 16.95)scale(0.12 -0.12)">
     <defs>
      <path id="SimHei-8bd5" d="M 3950 3825 
Q 3925 4325 3925 4550 
Q 3925 4800 3900 5225 
Q 4200 5150 4450 5125 
Q 4425 4825 4425 4600 
L 4425 3825 
L 5150 3825 
Q 5500 3825 5875 3850 
L 5875 3400 
Q 5525 3425 5125 3425 
L 4450 3425 
Q 4500 2750 4587 2212 
Q 4675 1675 4837 1112 
Q 5000 550 5212 225 
Q 5425 -100 5500 200 
Q 5575 500 5600 900 
Q 5800 625 6100 525 
Q 5975 -275 5750 -487 
Q 5525 -700 5250 -537 
Q 4975 -375 4737 62 
Q 4500 500 4337 1075 
Q 4175 1650 4100 2262 
Q 4025 2875 3975 3425 
L 2800 3425 
Q 2300 3425 1875 3400 
L 1875 3850 
Q 2275 3825 2775 3825 
L 3950 3825 
z
M 1500 3175 
Q 1475 2675 1475 2175 
L 1475 625 
Q 1825 950 2125 1225 
Q 2225 1000 2375 800 
Q 1900 425 1125 -350 
Q 1000 -125 825 50 
Q 1025 175 1025 525 
L 1025 2725 
Q 625 2725 300 2700 
L 300 3200 
Q 625 3175 825 3175 
L 1500 3175 
z
M 3775 2175 
Q 3500 2200 3250 2200 
L 3250 575 
Q 3575 675 3900 800 
Q 3900 525 3950 325 
Q 3575 250 3150 125 
Q 2725 0 2275 -175 
Q 2200 100 2025 300 
Q 2425 350 2800 475 
L 2800 2200 
Q 2525 2200 2225 2175 
L 2225 2650 
Q 2600 2625 3000 2625 
Q 3425 2625 3775 2650 
L 3775 2175 
z
M 925 4975 
Q 1275 4650 1700 4100 
Q 1525 3925 1325 3775 
Q 1175 4050 575 4650 
Q 775 4825 925 4975 
z
M 5150 5150 
Q 5325 5000 5850 4375 
Q 5575 4200 5425 4050 
Q 5125 4525 4775 4875 
Q 4925 4975 5150 5150 
z
" transform="scale(0.015625)"/>
      <path id="SimHei-9a8c" d="M 2300 4725 
Q 2250 4500 2225 4075 
L 2050 2125 
L 2525 2125 
Q 2500 1925 2475 1450 
L 2375 75 
Q 2375 -450 2075 -525 
Q 1775 -600 1250 -675 
Q 1175 -325 1050 -100 
Q 1575 -100 1737 -87 
Q 1900 -75 1950 150 
L 2025 1700 
L 550 1700 
Q 575 2175 587 2737 
Q 600 3300 600 3800 
L 1100 3800 
Q 1050 3525 1025 3087 
Q 1000 2650 1000 2125 
L 1625 2125 
L 1800 4325 
L 1125 4325 
Q 725 4325 350 4300 
L 350 4750 
Q 725 4725 1125 4725 
L 2300 4725 
z
M 4325 4875 
Q 4725 4125 5150 3775 
Q 5575 3425 6150 3225 
Q 5925 3025 5800 2725 
Q 5450 2925 5125 3200 
L 5125 2775 
Q 4800 2800 4200 2800 
Q 3600 2800 3225 2775 
L 3225 3175 
Q 3075 2975 2800 2650 
Q 2575 2875 2325 3000 
Q 2725 3275 2937 3550 
Q 3150 3825 3312 4125 
Q 3475 4425 3587 4675 
Q 3700 4925 3775 5225 
Q 4100 5150 4450 5075 
L 4325 4875 
z
M 5600 2150 
Q 5475 2000 5400 1737 
Q 5325 1475 5162 912 
Q 5000 350 4900 25 
L 5250 25 
Q 5425 25 5800 50 
L 5800 -400 
Q 5475 -375 5250 -375 
L 3325 -375 
Q 2875 -375 2675 -400 
L 2675 50 
Q 2975 25 3350 25 
L 4475 25 
Q 4675 575 4800 1150 
L 5050 2300 
Q 5250 2225 5600 2150 
z
M 5100 3225 
Q 4800 3450 4550 3775 
Q 4300 4100 4050 4600 
Q 3850 4200 3687 3912 
Q 3525 3625 3250 3225 
L 5100 3225 
z
M 3250 2175 
Q 3350 1825 3462 1375 
Q 3575 925 3675 550 
Q 3450 525 3250 425 
Q 3175 900 3087 1225 
Q 3000 1550 2850 2050 
Q 3050 2125 3250 2175 
z
M 1775 1125 
Q 1750 950 1725 700 
Q 1350 625 1112 575 
Q 875 525 375 375 
Q 300 650 200 925 
Q 550 950 925 1000 
Q 1300 1050 1775 1125 
z
M 4300 1650 
Q 4350 1325 4425 825 
L 4025 725 
Q 3925 1275 3875 1562 
Q 3825 1850 3750 2225 
Q 3975 2275 4200 2300 
L 4300 1650 
z
" transform="scale(0.015625)"/>
      <path id="SimHei-4e0b" d="M 5000 4700 
Q 5475 4700 5975 4725 
L 5975 4200 
Q 5425 4225 5000 4225 
L 3275 4225 
L 3275 375 
Q 3275 50 3300 -450 
L 2725 -450 
Q 2750 0 2750 375 
L 2750 4225 
L 1375 4225 
Q 875 4225 400 4200 
L 400 4725 
Q 875 4700 1375 4700 
L 5000 4700 
z
M 5650 1400 
Q 5400 1225 5200 1000 
Q 4800 1525 3650 2575 
L 4025 2950 
Q 4700 2400 5650 1400 
z
" transform="scale(0.015625)"/>
      <path id="SimHei-7c92" d="M 225 575 
Q 625 1075 925 1612 
Q 1225 2150 1375 2650 
Q 750 2650 300 2625 
L 300 3075 
Q 850 3050 1225 3050 
L 1450 3050 
L 1450 4475 
Q 1450 4625 1425 5200 
L 1925 5200 
Q 1900 4650 1900 4450 
L 1900 3050 
L 2150 3050 
Q 2350 3050 2950 3075 
L 2950 2625 
Q 2350 2650 2125 2650 
L 1900 2650 
L 1900 175 
Q 1900 -25 1925 -625 
L 1425 -625 
Q 1450 -25 1450 175 
L 1450 1700 
Q 1200 1100 675 300 
Q 425 475 225 575 
z
M 5700 3025 
Q 5525 2625 5375 1975 
Q 5225 1325 4875 125 
L 5600 125 
Q 5825 125 6175 150 
L 6175 -300 
Q 5850 -275 5600 -275 
L 3325 -275 
Q 3150 -275 2625 -300 
L 2625 150 
Q 3125 125 3275 125 
L 4400 125 
Q 4875 1600 5100 3200 
Q 5425 3100 5700 3025 
z
M 5375 3975 
Q 5650 3975 5950 4000 
L 5950 3550 
Q 5600 3575 5350 3575 
L 3475 3575 
Q 3225 3575 2950 3550 
L 2950 4000 
Q 3225 3975 3475 3975 
L 5375 3975 
z
M 3625 2950 
Q 3825 2225 3975 1687 
Q 4125 1150 4225 625 
Q 3975 575 3750 475 
Q 3625 1100 3525 1550 
Q 3425 2000 3175 2800 
Q 3400 2850 3625 2950 
z
M 2325 2300 
Q 2750 1800 3100 1350 
Q 2875 1175 2700 1025 
Q 2400 1525 1975 2000 
Q 2200 2125 2325 2300 
z
M 4200 5225 
Q 4500 4725 4725 4225 
Q 4425 4125 4250 4025 
Q 4075 4475 3725 5025 
Q 4000 5125 4200 5225 
z
M 2425 3300 
Q 2250 3425 2025 3500 
Q 2250 3875 2525 4675 
Q 2725 4575 2975 4475 
Q 2800 4150 2700 3912 
Q 2600 3675 2425 3300 
z
M 700 4625 
Q 975 4075 1250 3500 
Q 975 3400 825 3300 
Q 675 3725 275 4400 
Q 500 4500 700 4625 
z
" transform="scale(0.015625)"/>
      <path id="SimHei-5b50" d="M 2075 25 
Q 2650 0 2800 62 
Q 2950 125 2950 375 
L 2950 2200 
L 1175 2200 
Q 825 2200 350 2175 
L 350 2625 
Q 825 2600 1175 2600 
L 2950 2600 
Q 2950 3000 2925 3500 
Q 3275 3650 3637 3875 
Q 4000 4100 4475 4400 
L 1925 4400 
Q 1400 4400 1000 4375 
L 1000 4825 
Q 1525 4800 1875 4800 
L 5400 4800 
L 5400 4350 
Q 5025 4200 4575 3950 
Q 4125 3700 3450 3250 
L 3450 2600 
L 5125 2600 
Q 5550 2600 6075 2650 
L 6075 2200 
Q 5550 2225 5125 2200 
L 3450 2200 
L 3450 200 
Q 3450 -300 3162 -400 
Q 2875 -500 2300 -550 
Q 2250 -275 2075 25 
z
" transform="scale(0.015625)"/>
      <path id="SimHei-7fa4" d="M 2500 -425 
L 2500 25 
L 1475 25 
L 1475 -600 
L 1000 -600 
Q 1025 -225 1025 1400 
Q 825 1100 600 850 
Q 450 1050 200 1125 
Q 450 1375 700 1725 
Q 950 2075 1050 2375 
Q 850 2375 550 2350 
L 550 2775 
Q 900 2750 1125 2750 
Q 1200 3125 1200 3400 
Q 675 3400 375 3375 
L 375 3800 
Q 700 3775 1200 3775 
L 1200 4475 
Q 1050 4475 650 4450 
L 650 4900 
Q 1025 4875 1275 4875 
L 2950 4875 
Q 2925 4500 2925 3775 
Q 3075 3775 3275 3800 
L 3275 3375 
Q 3075 3400 2925 3400 
Q 2925 2675 2950 2375 
L 1500 2375 
Q 1350 1925 1225 1750 
L 2975 1750 
Q 2950 1425 2950 675 
Q 2950 -75 2975 -425 
L 2500 -425 
z
M 4875 1275 
Q 5825 1275 6075 1300 
L 6075 875 
Q 5825 900 4875 900 
L 4875 225 
Q 4875 -225 4900 -700 
L 4400 -700 
Q 4425 -225 4425 225 
L 4425 900 
Q 3550 900 3200 875 
L 3200 1300 
Q 3550 1275 4425 1275 
L 4425 2250 
Q 3675 2250 3400 2225 
L 3400 2650 
Q 3700 2625 4425 2625 
L 4425 3500 
Q 3775 3500 3375 3475 
L 3375 3900 
Q 3775 3875 4750 3875 
Q 5025 4475 5225 5175 
Q 5525 5025 5800 4975 
Q 5700 4825 5550 4562 
Q 5400 4300 5200 3875 
Q 5625 3875 5950 3900 
L 5950 3475 
Q 5650 3500 4875 3500 
L 4875 2625 
L 5225 2625 
L 5875 2650 
L 5875 2225 
Q 5525 2250 4875 2250 
L 4875 1275 
z
M 2500 400 
L 2500 1350 
L 1475 1350 
L 1475 400 
L 2500 400 
z
M 2475 3775 
L 2475 4475 
L 1650 4475 
L 1650 3775 
L 2475 3775 
z
M 2475 2750 
L 2475 3400 
L 1650 3400 
Q 1625 3125 1575 2750 
L 2475 2750 
z
M 4025 4175 
Q 3800 4600 3575 4925 
Q 3750 5000 3925 5150 
Q 4150 4900 4425 4450 
Q 4175 4300 4025 4175 
z
" transform="scale(0.015625)"/>
      <path id="SimHei-7b97" d="M 5175 3650 
Q 5150 3200 5150 2500 
Q 5150 1800 5175 1325 
L 4575 1325 
L 4575 875 
L 5250 875 
Q 5650 875 6150 900 
L 6150 475 
Q 5650 500 5250 500 
L 4575 500 
Q 4575 -75 4600 -625 
L 4050 -625 
Q 4075 -75 4075 500 
L 2650 500 
Q 2475 100 2125 -175 
Q 1775 -450 1075 -675 
Q 925 -425 700 -250 
Q 1250 -150 1600 37 
Q 1950 225 2125 500 
L 1225 500 
Q 800 500 300 475 
L 300 900 
Q 825 875 1225 875 
L 2200 875 
Q 2250 1075 2250 1325 
L 1250 1325 
Q 1275 1775 1275 2475 
Q 1275 3200 1250 3650 
L 5175 3650 
z
M 1825 5100 
Q 1625 4900 1475 4725 
L 2425 4725 
Q 2750 4725 3175 4750 
L 3175 4325 
Q 2750 4350 2200 4350 
Q 2250 4175 2350 3875 
Q 2075 3850 1825 3750 
Q 1750 4075 1675 4350 
L 1200 4350 
Q 1075 4125 775 3775 
Q 525 3925 250 4000 
Q 500 4225 762 4537 
Q 1025 4850 1275 5300 
Q 1500 5175 1825 5100 
z
M 4525 5100 
Q 4325 4950 4175 4725 
L 5225 4725 
Q 5500 4725 5950 4750 
L 5950 4325 
Q 5550 4350 4975 4350 
L 5175 3950 
Q 4925 3925 4650 3825 
Q 4575 4100 4500 4350 
L 3900 4350 
Q 3700 4025 3525 3775 
Q 3250 3950 3025 4000 
Q 3325 4300 3550 4612 
Q 3775 4925 3900 5275 
Q 4175 5175 4525 5100 
z
M 4650 1675 
L 4650 2000 
L 1775 2000 
L 1775 1675 
L 4650 1675 
z
M 4650 2350 
L 4650 2650 
L 1775 2650 
L 1775 2350 
L 4650 2350 
z
M 4650 3000 
L 4650 3300 
L 1775 3300 
L 1775 3000 
L 4650 3000 
z
M 4075 875 
L 4075 1325 
L 2725 1325 
Q 2725 1075 2700 875 
L 4075 875 
z
" transform="scale(0.015625)"/>
      <path id="SimHei-6cd5" d="M 6075 -300 
Q 5850 -425 5625 -625 
Q 5450 -300 5325 -125 
Q 4525 -175 3587 -262 
Q 2650 -350 2325 -450 
Q 2250 -150 2125 75 
Q 2450 175 2825 725 
Q 3200 1275 3500 2100 
L 2800 2100 
Q 2350 2100 1950 2075 
L 1950 2525 
Q 2350 2500 2825 2500 
L 3725 2500 
L 3725 3600 
L 3150 3600 
Q 2675 3600 2325 3575 
L 2325 4025 
Q 2725 4000 3125 4000 
L 3725 4000 
Q 3725 4700 3700 5150 
L 4250 5150 
Q 4225 4775 4225 4000 
L 4975 4000 
Q 5350 4000 5750 4025 
L 5750 3575 
Q 5350 3600 5025 3600 
L 4225 3600 
L 4225 2500 
L 5125 2500 
Q 5575 2500 6025 2525 
L 6025 2075 
Q 5575 2100 5125 2100 
L 3850 2100 
L 4100 1950 
Q 3950 1775 3625 1200 
Q 3300 625 2900 100 
Q 4000 150 5075 225 
Q 4775 675 4450 1025 
Q 4650 1175 4825 1350 
Q 5275 800 6075 -300 
z
M 300 -250 
Q 650 100 1012 625 
Q 1375 1150 1725 1725 
Q 1850 1500 2075 1375 
Q 1850 1075 1500 487 
Q 1150 -100 850 -625 
Q 650 -425 300 -250 
z
M 675 3425 
Q 1200 3100 1800 2650 
Q 1575 2500 1400 2250 
Q 925 2675 350 3050 
Q 525 3200 675 3425 
z
M 1050 4900 
Q 1550 4575 2100 4125 
Q 1900 3975 1725 3725 
Q 1250 4175 725 4525 
Q 900 4700 1050 4900 
z
" transform="scale(0.015625)"/>
      <path id="SimHei-7684" d="M 2100 4975 
Q 1975 4750 1750 3950 
L 2875 3950 
Q 2850 3525 2850 2875 
L 2850 675 
Q 2850 300 2875 -400 
L 2375 -400 
L 2375 100 
L 1100 100 
L 1100 -450 
L 600 -450 
Q 625 350 625 550 
L 625 2850 
Q 625 3525 600 3950 
L 1325 3950 
Q 1450 4525 1525 5150 
Q 1875 5025 2100 4975 
z
M 5825 3075 
Q 5800 1550 5700 175 
Q 5650 -275 5225 -425 
Q 4800 -575 4275 -625 
Q 4250 -350 4050 -50 
Q 4550 -75 4837 -25 
Q 5125 25 5200 200 
Q 5275 375 5312 1225 
Q 5350 2075 5375 3600 
L 3925 3600 
Q 3725 3125 3350 2475 
Q 3175 2650 2925 2750 
Q 3150 3050 3350 3475 
Q 3550 3900 3700 4400 
Q 3850 4900 3875 5175 
Q 4225 5025 4475 4950 
Q 4350 4750 4262 4512 
Q 4175 4275 4075 4050 
L 5850 4050 
Q 5825 3525 5825 3075 
z
M 2375 525 
L 2375 1850 
L 1100 1850 
L 1100 525 
L 2375 525 
z
M 2375 2275 
L 2375 3525 
L 1100 3525 
L 1100 2275 
L 2375 2275 
z
M 4350 2050 
Q 4500 1750 4700 1275 
Q 4525 1200 4225 1025 
Q 4050 1500 3900 1837 
Q 3750 2175 3600 2400 
Q 3775 2500 4050 2650 
L 4350 2050 
z
" transform="scale(0.015625)"/>
      <path id="SimHei-51fd" d="M 1200 200 
L 5200 200 
L 5200 2225 
Q 5200 2600 5150 3075 
L 5700 3075 
Q 5675 2500 5675 2225 
L 5675 50 
Q 5675 -275 5700 -625 
L 5200 -625 
L 5200 -225 
L 700 -225 
Q 725 50 725 1375 
Q 725 2700 700 3075 
L 1225 3075 
Q 1200 2800 1200 2475 
L 1200 200 
z
M 5450 4925 
L 5450 4450 
Q 5075 4325 4475 4037 
Q 3875 3750 3475 3575 
L 3475 1100 
Q 3475 700 3200 587 
Q 2925 475 2525 400 
Q 2475 675 2350 950 
Q 2750 950 2887 1000 
Q 3025 1050 3025 1375 
L 3025 3075 
Q 3025 3550 2975 3850 
Q 3225 3925 3700 4125 
Q 4175 4325 4500 4500 
L 1950 4500 
Q 1425 4500 1025 4475 
L 1025 4950 
Q 1525 4925 1950 4925 
L 5450 4925 
z
M 4500 1750 
Q 4700 1575 5000 1275 
Q 4825 1125 4650 900 
Q 4400 1175 4200 1375 
Q 4000 1575 3600 1925 
Q 3775 2100 3900 2275 
L 4500 1750 
z
M 2700 1800 
Q 2525 1675 2237 1487 
Q 1950 1300 1600 1000 
Q 1525 1175 1325 1425 
Q 1500 1500 1887 1737 
Q 2275 1975 2550 2225 
Q 2600 2025 2700 1800 
z
M 4975 3175 
Q 4800 3100 4562 2912 
Q 4325 2725 4000 2475 
Q 3875 2700 3750 2850 
Q 4025 3050 4200 3200 
Q 4375 3350 4600 3575 
Q 4775 3375 4975 3175 
z
M 2350 2550 
Q 2200 2750 2000 2937 
Q 1800 3125 1475 3350 
Q 1650 3525 1750 3700 
Q 2025 3500 2650 2950 
Q 2475 2725 2350 2550 
z
" transform="scale(0.015625)"/>
     </defs>
     <use xlink:href="#SimHei-31"/>
     <use xlink:href="#SimHei-30" x="50"/>
     <use xlink:href="#SimHei-30" x="100"/>
     <use xlink:href="#SimHei-6b21" x="150"/>
     <use xlink:href="#SimHei-8bd5" x="250"/>
     <use xlink:href="#SimHei-9a8c" x="350"/>
     <use xlink:href="#SimHei-4e0b" x="450"/>
     <use xlink:href="#SimHei-7c92" x="550"/>
     <use xlink:href="#SimHei-5b50" x="650"/>
     <use xlink:href="#SimHei-7fa4" x="750"/>
     <use xlink:href="#SimHei-7b97" x="850"/>
     <use xlink:href="#SimHei-6cd5" x="950"/>
     <use xlink:href="#SimHei-7684" x="1050"/>
     <use xlink:href="#SimHei-5e73" x="1150"/>
     <use xlink:href="#SimHei-5747" x="1250"/>
     <use xlink:href="#SimHei-6700" x="1350"/>
     <use xlink:href="#SimHei-5c0f" x="1450"/>
     <use xlink:href="#SimHei-51fd" x="1550"/>
     <use xlink:href="#SimHei-6570" x="1650"/>
     <use xlink:href="#SimHei-503c" x="1750"/>
    </g>
   </g>
  </g>
 </g>
 <defs>
  <clipPath id="p47ad5692f8">
   <rect x="42.2625" y="22.95" width="334.8" height="217.44"/>
  </clipPath>
 </defs>
</svg>
